<?xml version="1.0" encoding="UTF-8" standalone="no"?>
<!DOCTYPE svg PUBLIC "-//W3C//DTD SVG 1.1//EN"
 "http://www.w3.org/Graphics/SVG/1.1/DTD/svg11.dtd">
<!-- Generated by graphviz version 5.0.0 (20220707.1540)
 -->
<!-- Title: dependencies Pages: 1 -->
<svg width="3528pt" height="247pt"
 viewBox="0.00 0.00 3528.00 246.80" xmlns="http://www.w3.org/2000/svg" xmlns:xlink="http://www.w3.org/1999/xlink">
<g id="graph0" class="graph" transform="scale(1 1) rotate(0) translate(4 242.8)">
<title>dependencies</title>
<polygon fill="white" stroke="transparent" points="-4,4 -4,-242.8 3524,-242.8 3524,4 -4,4"/>
<text text-anchor="middle" x="1760" y="-8.2" font-family="sans-serif" font-size="14.00">dependencies</text>
<g id="clust1" class="cluster">
<title>cluster_AppModule</title>
<polygon fill="none" stroke="black" stroke-dasharray="1,5" points="8,-32.8 8,-230.8 3512,-230.8 3512,-32.8 8,-32.8"/>
</g>
<g id="clust2" class="cluster">
<title>cluster_AppModule_declarations</title>
<polygon fill="none" stroke="black" points="168,-40.8 168,-92.8 3504,-92.8 3504,-40.8 168,-40.8"/>
</g>
<g id="clust25" class="cluster">
<title>cluster_AppModule_imports</title>
<polygon fill="none" stroke="black" points="16,-40.8 16,-92.8 160,-92.8 160,-40.8 16,-40.8"/>
</g>
<g id="clust27" class="cluster">
<title>cluster_AppModule_bootstrap</title>
<polygon fill="none" stroke="black" points="1809,-170.8 1809,-222.8 1933,-222.8 1933,-170.8 1809,-170.8"/>
</g>
<!-- AppComponent -->
<g id="node1" class="node">
<title>AppComponent</title>
<polygon fill="#ffffb3" stroke="black" points="3495.94,-84.8 3390.06,-84.8 3390.06,-48.8 3495.94,-48.8 3495.94,-84.8"/>
<text text-anchor="middle" x="3443" y="-62.6" font-family="Times,serif" font-size="14.00">AppComponent</text>
</g>
<!-- AppModule -->
<g id="node23" class="node">
<title>AppModule</title>
<polygon fill="#8dd3c7" stroke="black" points="1912.66,-149.8 1909.66,-153.8 1888.66,-153.8 1885.66,-149.8 1829.34,-149.8 1829.34,-113.8 1912.66,-113.8 1912.66,-149.8"/>
<text text-anchor="middle" x="1871" y="-127.6" font-family="Times,serif" font-size="14.00">AppModule</text>
</g>
<!-- AppComponent&#45;&gt;AppModule -->
<g id="edge1" class="edge">
<title>AppComponent&#45;&gt;AppModule</title>
<path fill="none" stroke="black" d="M3443,-84.95C3443,-108.56 3443,-146.8 3443,-146.8 3443,-146.8 1923.05,-146.8 1923.05,-146.8"/>
<polygon fill="black" stroke="black" points="1923.05,-143.3 1913.05,-146.8 1923.05,-150.3 1923.05,-143.3"/>
</g>
<!-- BookFilterPipe -->
<g id="node2" class="node">
<title>BookFilterPipe</title>
<polygon fill="#ffffb3" stroke="black" points="3371.56,-84.8 3270.44,-84.8 3270.44,-48.8 3371.56,-48.8 3371.56,-84.8"/>
<text text-anchor="middle" x="3321" y="-62.6" font-family="Times,serif" font-size="14.00">BookFilterPipe</text>
</g>
<!-- BookFilterPipe&#45;&gt;AppModule -->
<g id="edge2" class="edge">
<title>BookFilterPipe&#45;&gt;AppModule</title>
<path fill="none" stroke="black" d="M3321,-85.05C3321,-107.82 3321,-143.8 3321,-143.8 3321,-143.8 1922.83,-143.8 1922.83,-143.8"/>
<polygon fill="black" stroke="black" points="1922.83,-140.3 1912.83,-143.8 1922.83,-147.3 1922.83,-140.3"/>
</g>
<!-- BookmarksComponent -->
<g id="node3" class="node">
<title>BookmarksComponent</title>
<polygon fill="#ffffb3" stroke="black" points="3251.88,-84.8 3106.12,-84.8 3106.12,-48.8 3251.88,-48.8 3251.88,-84.8"/>
<text text-anchor="middle" x="3179" y="-62.6" font-family="Times,serif" font-size="14.00">BookmarksComponent</text>
</g>
<!-- BookmarksComponent&#45;&gt;AppModule -->
<g id="edge3" class="edge">
<title>BookmarksComponent&#45;&gt;AppModule</title>
<path fill="none" stroke="black" d="M3179,-85.09C3179,-107.01 3179,-140.8 3179,-140.8 3179,-140.8 1922.67,-140.8 1922.67,-140.8"/>
<polygon fill="black" stroke="black" points="1922.67,-137.3 1912.67,-140.8 1922.67,-144.3 1922.67,-137.3"/>
</g>
<!-- ChallengeComponent -->
<g id="node4" class="node">
<title>ChallengeComponent</title>
<polygon fill="#ffffb3" stroke="black" points="3088.09,-84.8 2949.91,-84.8 2949.91,-48.8 3088.09,-48.8 3088.09,-84.8"/>
<text text-anchor="middle" x="3019" y="-62.6" font-family="Times,serif" font-size="14.00">ChallengeComponent</text>
</g>
<!-- ChallengeComponent&#45;&gt;AppModule -->
<g id="edge4" class="edge">
<title>ChallengeComponent&#45;&gt;AppModule</title>
<path fill="none" stroke="black" d="M3019,-85.08C3019,-106.12 3019,-137.8 3019,-137.8 3019,-137.8 1922.88,-137.8 1922.88,-137.8"/>
<polygon fill="black" stroke="black" points="1922.88,-134.3 1912.88,-137.8 1922.88,-141.3 1922.88,-134.3"/>
</g>
<!-- EditProfileComponent -->
<g id="node5" class="node">
<title>EditProfileComponent</title>
<polygon fill="#ffffb3" stroke="black" points="2932.27,-84.8 2789.73,-84.8 2789.73,-48.8 2932.27,-48.8 2932.27,-84.8"/>
<text text-anchor="middle" x="2861" y="-62.6" font-family="Times,serif" font-size="14.00">EditProfileComponent</text>
</g>
<!-- EditProfileComponent&#45;&gt;AppModule -->
<g id="edge5" class="edge">
<title>EditProfileComponent&#45;&gt;AppModule</title>
<path fill="none" stroke="black" d="M2861,-85.02C2861,-105.17 2861,-134.8 2861,-134.8 2861,-134.8 1922.91,-134.8 1922.91,-134.8"/>
<polygon fill="black" stroke="black" points="1922.91,-131.3 1912.91,-134.8 1922.91,-138.3 1922.91,-131.3"/>
</g>
<!-- FilterFriendsPipe -->
<g id="node6" class="node">
<title>FilterFriendsPipe</title>
<polygon fill="#ffffb3" stroke="black" points="2771.72,-84.8 2658.28,-84.8 2658.28,-48.8 2771.72,-48.8 2771.72,-84.8"/>
<text text-anchor="middle" x="2715" y="-62.6" font-family="Times,serif" font-size="14.00">FilterFriendsPipe</text>
</g>
<!-- FilterFriendsPipe&#45;&gt;AppModule -->
<g id="edge6" class="edge">
<title>FilterFriendsPipe&#45;&gt;AppModule</title>
<path fill="none" stroke="black" d="M2715,-84.91C2715,-104.14 2715,-131.8 2715,-131.8 2715,-131.8 1922.85,-131.8 1922.85,-131.8"/>
<polygon fill="black" stroke="black" points="1922.85,-128.3 1912.85,-131.8 1922.85,-135.3 1922.85,-128.3"/>
</g>
<!-- FilterPipe -->
<g id="node7" class="node">
<title>FilterPipe</title>
<polygon fill="#ffffb3" stroke="black" points="2640.72,-84.8 2569.28,-84.8 2569.28,-48.8 2640.72,-48.8 2640.72,-84.8"/>
<text text-anchor="middle" x="2605" y="-62.6" font-family="Times,serif" font-size="14.00">FilterPipe</text>
</g>
<!-- FilterPipe&#45;&gt;AppModule -->
<g id="edge7" class="edge">
<title>FilterPipe&#45;&gt;AppModule</title>
<path fill="none" stroke="black" d="M2605,-85.07C2605,-103.36 2605,-128.8 2605,-128.8 2605,-128.8 1922.83,-128.8 1922.83,-128.8"/>
<polygon fill="black" stroke="black" points="1922.83,-125.3 1912.83,-128.8 1922.83,-132.3 1922.83,-125.3"/>
</g>
<!-- FriendInfoComponent -->
<g id="node8" class="node">
<title>FriendInfoComponent</title>
<polygon fill="#ffffb3" stroke="black" points="2551.71,-84.8 2410.29,-84.8 2410.29,-48.8 2551.71,-48.8 2551.71,-84.8"/>
<text text-anchor="middle" x="2481" y="-62.6" font-family="Times,serif" font-size="14.00">FriendInfoComponent</text>
</g>
<!-- FriendInfoComponent&#45;&gt;AppModule -->
<g id="edge8" class="edge">
<title>FriendInfoComponent&#45;&gt;AppModule</title>
<path fill="none" stroke="black" d="M2481,-84.82C2481,-102.17 2481,-125.8 2481,-125.8 2481,-125.8 1922.93,-125.8 1922.93,-125.8"/>
<polygon fill="black" stroke="black" points="1922.93,-122.3 1912.93,-125.8 1922.93,-129.3 1922.93,-122.3"/>
</g>
<!-- FriendSelectComponent -->
<g id="node9" class="node">
<title>FriendSelectComponent</title>
<polygon fill="#ffffb3" stroke="black" points="2392.09,-84.8 2239.91,-84.8 2239.91,-48.8 2392.09,-48.8 2392.09,-84.8"/>
<text text-anchor="middle" x="2316" y="-62.6" font-family="Times,serif" font-size="14.00">FriendSelectComponent</text>
</g>
<!-- FriendSelectComponent&#45;&gt;AppModule -->
<g id="edge9" class="edge">
<title>FriendSelectComponent&#45;&gt;AppModule</title>
<path fill="none" stroke="black" d="M2316,-84.83C2316,-101.2 2316,-122.8 2316,-122.8 2316,-122.8 1922.86,-122.8 1922.86,-122.8"/>
<polygon fill="black" stroke="black" points="1922.86,-119.3 1912.86,-122.8 1922.86,-126.3 1922.86,-119.3"/>
</g>
<!-- FriendsComponent -->
<g id="node10" class="node">
<title>FriendsComponent</title>
<polygon fill="#ffffb3" stroke="black" points="2221.83,-84.8 2098.17,-84.8 2098.17,-48.8 2221.83,-48.8 2221.83,-84.8"/>
<text text-anchor="middle" x="2160" y="-62.6" font-family="Times,serif" font-size="14.00">FriendsComponent</text>
</g>
<!-- FriendsComponent&#45;&gt;AppModule -->
<g id="edge10" class="edge">
<title>FriendsComponent&#45;&gt;AppModule</title>
<path fill="none" stroke="black" d="M2160,-85.04C2160,-100.37 2160,-119.8 2160,-119.8 2160,-119.8 1922.71,-119.8 1922.71,-119.8"/>
<polygon fill="black" stroke="black" points="1922.71,-116.3 1912.71,-119.8 1922.71,-123.3 1922.71,-116.3"/>
</g>
<!-- HomeComponent -->
<g id="node11" class="node">
<title>HomeComponent</title>
<polygon fill="#ffffb3" stroke="black" points="2080.55,-84.8 1965.45,-84.8 1965.45,-48.8 2080.55,-48.8 2080.55,-84.8"/>
<text text-anchor="middle" x="2023" y="-62.6" font-family="Times,serif" font-size="14.00">HomeComponent</text>
</g>
<!-- HomeComponent&#45;&gt;AppModule -->
<g id="edge11" class="edge">
<title>HomeComponent&#45;&gt;AppModule</title>
<path fill="none" stroke="black" d="M2023,-84.85C2023,-99.17 2023,-116.8 2023,-116.8 2023,-116.8 1922.94,-116.8 1922.94,-116.8"/>
<polygon fill="black" stroke="black" points="1922.94,-113.3 1912.94,-116.8 1922.94,-120.3 1922.94,-113.3"/>
</g>
<!-- LeaderboardComponent -->
<g id="node12" class="node">
<title>LeaderboardComponent</title>
<polygon fill="#ffffb3" stroke="black" points="1947.06,-84.8 1794.94,-84.8 1794.94,-48.8 1947.06,-48.8 1947.06,-84.8"/>
<text text-anchor="middle" x="1871" y="-62.6" font-family="Times,serif" font-size="14.00">LeaderboardComponent</text>
</g>
<!-- LeaderboardComponent&#45;&gt;AppModule -->
<g id="edge12" class="edge">
<title>LeaderboardComponent&#45;&gt;AppModule</title>
<path fill="none" stroke="black" d="M1871,-84.91C1871,-84.91 1871,-103.79 1871,-103.79"/>
<polygon fill="black" stroke="black" points="1867.5,-103.79 1871,-113.79 1874.5,-103.79 1867.5,-103.79"/>
</g>
<!-- LoginComponent -->
<g id="node13" class="node">
<title>LoginComponent</title>
<polygon fill="#ffffb3" stroke="black" points="1777.27,-84.8 1662.73,-84.8 1662.73,-48.8 1777.27,-48.8 1777.27,-84.8"/>
<text text-anchor="middle" x="1720" y="-62.6" font-family="Times,serif" font-size="14.00">LoginComponent</text>
</g>
<!-- LoginComponent&#45;&gt;AppModule -->
<g id="edge13" class="edge">
<title>LoginComponent&#45;&gt;AppModule</title>
<path fill="none" stroke="black" d="M1720,-84.85C1720,-99.17 1720,-116.8 1720,-116.8 1720,-116.8 1818.94,-116.8 1818.94,-116.8"/>
<polygon fill="black" stroke="black" points="1818.94,-120.3 1828.94,-116.8 1818.94,-113.3 1818.94,-120.3"/>
</g>
<!-- MasterAnswerComponent -->
<g id="node14" class="node">
<title>MasterAnswerComponent</title>
<polygon fill="#ffffb3" stroke="black" points="1644.75,-84.8 1481.25,-84.8 1481.25,-48.8 1644.75,-48.8 1644.75,-84.8"/>
<text text-anchor="middle" x="1563" y="-62.6" font-family="Times,serif" font-size="14.00">MasterAnswerComponent</text>
</g>
<!-- MasterAnswerComponent&#45;&gt;AppModule -->
<g id="edge14" class="edge">
<title>MasterAnswerComponent&#45;&gt;AppModule</title>
<path fill="none" stroke="black" d="M1563,-85.04C1563,-100.37 1563,-119.8 1563,-119.8 1563,-119.8 1819.14,-119.8 1819.14,-119.8"/>
<polygon fill="black" stroke="black" points="1819.14,-123.3 1829.14,-119.8 1819.14,-116.3 1819.14,-123.3"/>
</g>
<!-- QuizAnswerComponent -->
<g id="node15" class="node">
<title>QuizAnswerComponent</title>
<polygon fill="#ffffb3" stroke="black" points="1463.09,-84.8 1310.91,-84.8 1310.91,-48.8 1463.09,-48.8 1463.09,-84.8"/>
<text text-anchor="middle" x="1387" y="-62.6" font-family="Times,serif" font-size="14.00">QuizAnswerComponent</text>
</g>
<!-- QuizAnswerComponent&#45;&gt;AppModule -->
<g id="edge15" class="edge">
<title>QuizAnswerComponent&#45;&gt;AppModule</title>
<path fill="none" stroke="black" d="M1387,-84.83C1387,-101.2 1387,-122.8 1387,-122.8 1387,-122.8 1819.32,-122.8 1819.32,-122.8"/>
<polygon fill="black" stroke="black" points="1819.32,-126.3 1829.32,-122.8 1819.32,-119.3 1819.32,-126.3"/>
</g>
<!-- QuizCreateComponent -->
<g id="node16" class="node">
<title>QuizCreateComponent</title>
<polygon fill="#ffffb3" stroke="black" points="1292.58,-84.8 1147.42,-84.8 1147.42,-48.8 1292.58,-48.8 1292.58,-84.8"/>
<text text-anchor="middle" x="1220" y="-62.6" font-family="Times,serif" font-size="14.00">QuizCreateComponent</text>
</g>
<!-- QuizCreateComponent&#45;&gt;AppModule -->
<g id="edge16" class="edge">
<title>QuizCreateComponent&#45;&gt;AppModule</title>
<path fill="none" stroke="black" d="M1220,-84.82C1220,-102.17 1220,-125.8 1220,-125.8 1220,-125.8 1819.29,-125.8 1819.29,-125.8"/>
<polygon fill="black" stroke="black" points="1819.29,-129.3 1829.29,-125.8 1819.29,-122.3 1819.29,-129.3"/>
</g>
<!-- QuizImageComponent -->
<g id="node17" class="node">
<title>QuizImageComponent</title>
<polygon fill="#ffffb3" stroke="black" points="1129.53,-84.8 986.47,-84.8 986.47,-48.8 1129.53,-48.8 1129.53,-84.8"/>
<text text-anchor="middle" x="1058" y="-62.6" font-family="Times,serif" font-size="14.00">QuizImageComponent</text>
</g>
<!-- QuizImageComponent&#45;&gt;AppModule -->
<g id="edge17" class="edge">
<title>QuizImageComponent&#45;&gt;AppModule</title>
<path fill="none" stroke="black" d="M1058,-85.07C1058,-103.36 1058,-128.8 1058,-128.8 1058,-128.8 1819.28,-128.8 1819.28,-128.8"/>
<polygon fill="black" stroke="black" points="1819.28,-132.3 1829.28,-128.8 1819.28,-125.3 1819.28,-132.3"/>
</g>
<!-- QuizInfoComponent -->
<g id="node18" class="node">
<title>QuizInfoComponent</title>
<polygon fill="#ffffb3" stroke="black" points="967.87,-84.8 836.13,-84.8 836.13,-48.8 967.87,-48.8 967.87,-84.8"/>
<text text-anchor="middle" x="902" y="-62.6" font-family="Times,serif" font-size="14.00">QuizInfoComponent</text>
</g>
<!-- QuizInfoComponent&#45;&gt;AppModule -->
<g id="edge18" class="edge">
<title>QuizInfoComponent&#45;&gt;AppModule</title>
<path fill="none" stroke="black" d="M902,-84.91C902,-104.14 902,-131.8 902,-131.8 902,-131.8 1819.05,-131.8 1819.05,-131.8"/>
<polygon fill="black" stroke="black" points="1819.05,-135.3 1829.05,-131.8 1819.05,-128.3 1819.05,-135.3"/>
</g>
<!-- QuizResultComponent -->
<g id="node19" class="node">
<title>QuizResultComponent</title>
<polygon fill="#ffffb3" stroke="black" points="818.32,-84.8 673.68,-84.8 673.68,-48.8 818.32,-48.8 818.32,-84.8"/>
<text text-anchor="middle" x="746" y="-62.6" font-family="Times,serif" font-size="14.00">QuizResultComponent</text>
</g>
<!-- QuizResultComponent&#45;&gt;AppModule -->
<g id="edge19" class="edge">
<title>QuizResultComponent&#45;&gt;AppModule</title>
<path fill="none" stroke="black" d="M746,-85.02C746,-105.17 746,-134.8 746,-134.8 746,-134.8 1819.29,-134.8 1819.29,-134.8"/>
<polygon fill="black" stroke="black" points="1819.29,-138.3 1829.29,-134.8 1819.29,-131.3 1819.29,-138.3"/>
</g>
<!-- QuizSearchComponent -->
<g id="node20" class="node">
<title>QuizSearchComponent</title>
<polygon fill="#ffffb3" stroke="black" points="656.14,-84.8 509.86,-84.8 509.86,-48.8 656.14,-48.8 656.14,-84.8"/>
<text text-anchor="middle" x="583" y="-62.6" font-family="Times,serif" font-size="14.00">QuizSearchComponent</text>
</g>
<!-- QuizSearchComponent&#45;&gt;AppModule -->
<g id="edge20" class="edge">
<title>QuizSearchComponent&#45;&gt;AppModule</title>
<path fill="none" stroke="black" d="M583,-85.08C583,-106.12 583,-137.8 583,-137.8 583,-137.8 1819.24,-137.8 1819.24,-137.8"/>
<polygon fill="black" stroke="black" points="1819.24,-141.3 1829.24,-137.8 1819.24,-134.3 1819.24,-141.3"/>
</g>
<!-- QuizTypeinComponent -->
<g id="node21" class="node">
<title>QuizTypeinComponent</title>
<polygon fill="#ffffb3" stroke="black" points="492.2,-84.8 343.8,-84.8 343.8,-48.8 492.2,-48.8 492.2,-84.8"/>
<text text-anchor="middle" x="418" y="-62.6" font-family="Times,serif" font-size="14.00">QuizTypeinComponent</text>
</g>
<!-- QuizTypeinComponent&#45;&gt;AppModule -->
<g id="edge21" class="edge">
<title>QuizTypeinComponent&#45;&gt;AppModule</title>
<path fill="none" stroke="black" d="M418,-85.09C418,-107.01 418,-140.8 418,-140.8 418,-140.8 1819.08,-140.8 1819.08,-140.8"/>
<polygon fill="black" stroke="black" points="1819.08,-144.3 1829.08,-140.8 1819.08,-137.3 1819.08,-144.3"/>
</g>
<!-- RegistrationComponent -->
<g id="node22" class="node">
<title>RegistrationComponent</title>
<polygon fill="#ffffb3" stroke="black" points="325.77,-84.8 176.23,-84.8 176.23,-48.8 325.77,-48.8 325.77,-84.8"/>
<text text-anchor="middle" x="251" y="-62.6" font-family="Times,serif" font-size="14.00">RegistrationComponent</text>
</g>
<!-- RegistrationComponent&#45;&gt;AppModule -->
<g id="edge22" class="edge">
<title>RegistrationComponent&#45;&gt;AppModule</title>
<path fill="none" stroke="black" d="M251,-85.05C251,-107.82 251,-143.8 251,-143.8 251,-143.8 1819.33,-143.8 1819.33,-143.8"/>
<polygon fill="black" stroke="black" points="1819.33,-147.3 1829.33,-143.8 1819.33,-140.3 1819.33,-147.3"/>
</g>
<!-- AppComponent  -->
<g id="node25" class="node">
<title>AppComponent </title>
<polygon fill="#80b1d3" stroke="black" points="1925.44,-214.8 1816.56,-214.8 1816.56,-178.8 1925.44,-178.8 1925.44,-214.8"/>
<text text-anchor="middle" x="1871" y="-192.6" font-family="Times,serif" font-size="14.00">AppComponent </text>
</g>
<!-- AppModule&#45;&gt;AppComponent  -->
<g id="edge24" class="edge">
<title>AppModule&#45;&gt;AppComponent </title>
<path fill="none" stroke="black" stroke-dasharray="1,5" d="M1871,-149.91C1871,-149.91 1871,-168.79 1871,-168.79"/>
<polygon fill="black" stroke="black" points="1867.5,-168.79 1871,-178.79 1874.5,-168.79 1867.5,-168.79"/>
</g>
<!-- AppRoutingModule -->
<g id="node24" class="node">
<title>AppRoutingModule</title>
<polygon fill="#8dd3c7" stroke="black" points="152.28,-84.8 149.28,-88.8 128.28,-88.8 125.28,-84.8 23.72,-84.8 23.72,-48.8 152.28,-48.8 152.28,-84.8"/>
<text text-anchor="middle" x="88" y="-62.6" font-family="Times,serif" font-size="14.00">AppRoutingModule</text>
</g>
<!-- AppRoutingModule&#45;&gt;AppModule -->
<g id="edge23" class="edge">
<title>AppRoutingModule&#45;&gt;AppModule</title>
<path fill="none" stroke="black" d="M88,-84.95C88,-108.56 88,-146.8 88,-146.8 88,-146.8 1819.12,-146.8 1819.12,-146.8"/>
<polygon fill="black" stroke="black" points="1819.12,-150.3 1829.12,-146.8 1819.12,-143.3 1819.12,-150.3"/>
</g>
</g>
</svg>
