<?xml version="1.0" encoding="UTF-8" standalone="no"?>
<!DOCTYPE svg PUBLIC "-//W3C//DTD SVG 1.1//EN"
 "http://www.w3.org/Graphics/SVG/1.1/DTD/svg11.dtd">
<!-- Generated by graphviz version 5.0.0 (20220707.1540)
 -->
<!-- Title: dependencies Pages: 1 -->
<svg width="945pt" height="247pt"
 viewBox="0.00 0.00 945.00 246.80" xmlns="http://www.w3.org/2000/svg" xmlns:xlink="http://www.w3.org/1999/xlink">
<g id="graph0" class="graph" transform="scale(1 1) rotate(0) translate(4 242.8)">
<title>dependencies</title>
<polygon fill="white" stroke="transparent" points="-4,4 -4,-242.8 941,-242.8 941,4 -4,4"/>
<text text-anchor="middle" x="468.5" y="-8.2" font-family="sans-serif" font-size="14.00">dependencies</text>
<g id="clust1" class="cluster">
<title>cluster_AppModule</title>
<polygon fill="none" stroke="black" stroke-dasharray="1,5" points="8,-32.8 8,-230.8 929,-230.8 929,-32.8 8,-32.8"/>
</g>
<g id="clust2" class="cluster">
<title>cluster_AppModule_declarations</title>
<polygon fill="none" stroke="black" points="168,-40.8 168,-92.8 921,-92.8 921,-40.8 168,-40.8"/>
</g>
<g id="clust8" class="cluster">
<title>cluster_AppModule_imports</title>
<polygon fill="none" stroke="black" points="16,-40.8 16,-92.8 160,-92.8 160,-40.8 16,-40.8"/>
</g>
<g id="clust10" class="cluster">
<title>cluster_AppModule_bootstrap</title>
<polygon fill="none" stroke="black" points="433,-170.8 433,-222.8 557,-222.8 557,-170.8 433,-170.8"/>
</g>
<!-- AppComponent -->
<g id="node1" class="node">
<title>AppComponent</title>
<polygon fill="#ffffb3" stroke="black" points="912.94,-84.8 807.06,-84.8 807.06,-48.8 912.94,-48.8 912.94,-84.8"/>
<text text-anchor="middle" x="860" y="-62.6" font-family="Times,serif" font-size="14.00">AppComponent</text>
</g>
<!-- AppModule -->
<g id="node6" class="node">
<title>AppModule</title>
<polygon fill="#8dd3c7" stroke="black" points="536.66,-149.8 533.66,-153.8 512.66,-153.8 509.66,-149.8 453.34,-149.8 453.34,-113.8 536.66,-113.8 536.66,-149.8"/>
<text text-anchor="middle" x="495" y="-127.6" font-family="Times,serif" font-size="14.00">AppModule</text>
</g>
<!-- AppComponent&#45;&gt;AppModule -->
<g id="edge1" class="edge">
<title>AppComponent&#45;&gt;AppModule</title>
<path fill="none" stroke="black" d="M860,-85.08C860,-106.12 860,-137.8 860,-137.8 860,-137.8 546.87,-137.8 546.87,-137.8"/>
<polygon fill="black" stroke="black" points="546.87,-134.3 536.87,-137.8 546.87,-141.3 546.87,-134.3"/>
</g>
<!-- EditProfileComponent -->
<g id="node2" class="node">
<title>EditProfileComponent</title>
<polygon fill="#ffffb3" stroke="black" points="789.27,-84.8 646.73,-84.8 646.73,-48.8 789.27,-48.8 789.27,-84.8"/>
<text text-anchor="middle" x="718" y="-62.6" font-family="Times,serif" font-size="14.00">EditProfileComponent</text>
</g>
<!-- EditProfileComponent&#45;&gt;AppModule -->
<g id="edge2" class="edge">
<title>EditProfileComponent&#45;&gt;AppModule</title>
<path fill="none" stroke="black" d="M718,-84.82C718,-102.17 718,-125.8 718,-125.8 718,-125.8 546.68,-125.8 546.68,-125.8"/>
<polygon fill="black" stroke="black" points="546.68,-122.3 536.68,-125.8 546.68,-129.3 546.68,-122.3"/>
</g>
<!-- LoginComponent -->
<g id="node3" class="node">
<title>LoginComponent</title>
<polygon fill="#ffffb3" stroke="black" points="628.27,-84.8 513.73,-84.8 513.73,-48.8 628.27,-48.8 628.27,-84.8"/>
<text text-anchor="middle" x="571" y="-62.6" font-family="Times,serif" font-size="14.00">LoginComponent</text>
</g>
<!-- LoginComponent&#45;&gt;AppModule -->
<g id="edge3" class="edge">
<title>LoginComponent&#45;&gt;AppModule</title>
<path fill="none" stroke="black" d="M525.22,-84.91C525.22,-84.91 525.22,-103.79 525.22,-103.79"/>
<polygon fill="black" stroke="black" points="521.72,-103.79 525.22,-113.79 528.72,-103.79 521.72,-103.79"/>
</g>
<!-- QuizAnswerComponent -->
<g id="node4" class="node">
<title>QuizAnswerComponent</title>
<polygon fill="#ffffb3" stroke="black" points="496.09,-84.8 343.91,-84.8 343.91,-48.8 496.09,-48.8 496.09,-84.8"/>
<text text-anchor="middle" x="420" y="-62.6" font-family="Times,serif" font-size="14.00">QuizAnswerComponent</text>
</g>
<!-- QuizAnswerComponent&#45;&gt;AppModule -->
<g id="edge4" class="edge">
<title>QuizAnswerComponent&#45;&gt;AppModule</title>
<path fill="none" stroke="black" d="M474.61,-84.91C474.61,-84.91 474.61,-103.79 474.61,-103.79"/>
<polygon fill="black" stroke="black" points="471.11,-103.79 474.61,-113.79 478.11,-103.79 471.11,-103.79"/>
</g>
<!-- RegistrationComponent -->
<g id="node5" class="node">
<title>RegistrationComponent</title>
<polygon fill="#ffffb3" stroke="black" points="325.77,-84.8 176.23,-84.8 176.23,-48.8 325.77,-48.8 325.77,-84.8"/>
<text text-anchor="middle" x="251" y="-62.6" font-family="Times,serif" font-size="14.00">RegistrationComponent</text>
</g>
<!-- RegistrationComponent&#45;&gt;AppModule -->
<g id="edge5" class="edge">
<title>RegistrationComponent&#45;&gt;AppModule</title>
<path fill="none" stroke="black" d="M251,-84.82C251,-102.17 251,-125.8 251,-125.8 251,-125.8 443.33,-125.8 443.33,-125.8"/>
<polygon fill="black" stroke="black" points="443.33,-129.3 453.33,-125.8 443.33,-122.3 443.33,-129.3"/>
</g>
<!-- AppComponent  -->
<g id="node8" class="node">
<title>AppComponent </title>
<polygon fill="#80b1d3" stroke="black" points="549.44,-214.8 440.56,-214.8 440.56,-178.8 549.44,-178.8 549.44,-214.8"/>
<text text-anchor="middle" x="495" y="-192.6" font-family="Times,serif" font-size="14.00">AppComponent </text>
</g>
<!-- AppModule&#45;&gt;AppComponent  -->
<g id="edge7" class="edge">
<title>AppModule&#45;&gt;AppComponent </title>
<path fill="none" stroke="black" stroke-dasharray="1,5" d="M495,-149.91C495,-149.91 495,-168.79 495,-168.79"/>
<polygon fill="black" stroke="black" points="491.5,-168.79 495,-178.79 498.5,-168.79 491.5,-168.79"/>
</g>
<!-- AppRoutingModule -->
<g id="node7" class="node">
<title>AppRoutingModule</title>
<polygon fill="#8dd3c7" stroke="black" points="152.28,-84.8 149.28,-88.8 128.28,-88.8 125.28,-84.8 23.72,-84.8 23.72,-48.8 152.28,-48.8 152.28,-84.8"/>
<text text-anchor="middle" x="88" y="-62.6" font-family="Times,serif" font-size="14.00">AppRoutingModule</text>
</g>
<!-- AppRoutingModule&#45;&gt;AppModule -->
<g id="edge6" class="edge">
<title>AppRoutingModule&#45;&gt;AppModule</title>
<path fill="none" stroke="black" d="M88,-85.08C88,-106.12 88,-137.8 88,-137.8 88,-137.8 442.98,-137.8 442.98,-137.8"/>
<polygon fill="black" stroke="black" points="442.98,-141.3 452.98,-137.8 442.98,-134.3 442.98,-141.3"/>
</g>
</g>
</svg>
