<?xml version="1.0" encoding="UTF-8" standalone="no"?>
<!DOCTYPE svg PUBLIC "-//W3C//DTD SVG 1.1//EN"
 "http://www.w3.org/Graphics/SVG/1.1/DTD/svg11.dtd">
<!-- Generated by graphviz version 5.0.0 (20220707.1540)
 -->
<!-- Title: dependencies Pages: 1 -->
<svg width="2110pt" height="247pt"
 viewBox="0.00 0.00 2110.00 246.80" xmlns="http://www.w3.org/2000/svg" xmlns:xlink="http://www.w3.org/1999/xlink">
<g id="graph0" class="graph" transform="scale(1 1) rotate(0) translate(4 242.8)">
<title>dependencies</title>
<polygon fill="white" stroke="transparent" points="-4,4 -4,-242.8 2106,-242.8 2106,4 -4,4"/>
<text text-anchor="middle" x="1051" y="-8.2" font-family="sans-serif" font-size="14.00">dependencies</text>
<g id="clust1" class="cluster">
<title>cluster_AppModule</title>
<polygon fill="none" stroke="black" stroke-dasharray="1,5" points="8,-32.8 8,-230.8 2094,-230.8 2094,-32.8 8,-32.8"/>
</g>
<g id="clust2" class="cluster">
<title>cluster_AppModule_declarations</title>
<polygon fill="none" stroke="black" points="168,-40.8 168,-92.8 2086,-92.8 2086,-40.8 168,-40.8"/>
</g>
<g id="clust16" class="cluster">
<title>cluster_AppModule_imports</title>
<polygon fill="none" stroke="black" points="16,-40.8 16,-92.8 160,-92.8 160,-40.8 16,-40.8"/>
</g>
<g id="clust18" class="cluster">
<title>cluster_AppModule_bootstrap</title>
<polygon fill="none" stroke="black" points="1089,-170.8 1089,-222.8 1213,-222.8 1213,-170.8 1089,-170.8"/>
</g>
<!-- AppComponent -->
<g id="node1" class="node">
<title>AppComponent</title>
<polygon fill="#ffffb3" stroke="black" points="2077.94,-84.8 1972.06,-84.8 1972.06,-48.8 2077.94,-48.8 2077.94,-84.8"/>
<text text-anchor="middle" x="2025" y="-62.6" font-family="Times,serif" font-size="14.00">AppComponent</text>
</g>
<!-- AppModule -->
<g id="node14" class="node">
<title>AppModule</title>
<polygon fill="#8dd3c7" stroke="black" points="1192.66,-149.8 1189.66,-153.8 1168.66,-153.8 1165.66,-149.8 1109.34,-149.8 1109.34,-113.8 1192.66,-113.8 1192.66,-149.8"/>
<text text-anchor="middle" x="1151" y="-127.6" font-family="Times,serif" font-size="14.00">AppModule</text>
</g>
<!-- AppComponent&#45;&gt;AppModule -->
<g id="edge1" class="edge">
<title>AppComponent&#45;&gt;AppModule</title>
<path fill="none" stroke="black" d="M2025,-84.89C2025,-107.93 2025,-144.8 2025,-144.8 2025,-144.8 1202.86,-144.8 1202.86,-144.8"/>
<polygon fill="black" stroke="black" points="1202.86,-141.3 1192.86,-144.8 1202.86,-148.3 1202.86,-141.3"/>
</g>
<!-- BookFilterPipe -->
<g id="node2" class="node">
<title>BookFilterPipe</title>
<polygon fill="#ffffb3" stroke="black" points="1953.56,-84.8 1852.44,-84.8 1852.44,-48.8 1953.56,-48.8 1953.56,-84.8"/>
<text text-anchor="middle" x="1903" y="-62.6" font-family="Times,serif" font-size="14.00">BookFilterPipe</text>
</g>
<!-- BookFilterPipe&#45;&gt;AppModule -->
<g id="edge2" class="edge">
<title>BookFilterPipe&#45;&gt;AppModule</title>
<path fill="none" stroke="black" d="M1903,-84.84C1903,-106.46 1903,-139.8 1903,-139.8 1903,-139.8 1202.77,-139.8 1202.77,-139.8"/>
<polygon fill="black" stroke="black" points="1202.77,-136.3 1192.77,-139.8 1202.77,-143.3 1202.77,-136.3"/>
</g>
<!-- BookmarksComponent -->
<g id="node3" class="node">
<title>BookmarksComponent</title>
<polygon fill="#ffffb3" stroke="black" points="1833.88,-84.8 1688.12,-84.8 1688.12,-48.8 1833.88,-48.8 1833.88,-84.8"/>
<text text-anchor="middle" x="1761" y="-62.6" font-family="Times,serif" font-size="14.00">BookmarksComponent</text>
</g>
<!-- BookmarksComponent&#45;&gt;AppModule -->
<g id="edge3" class="edge">
<title>BookmarksComponent&#45;&gt;AppModule</title>
<path fill="none" stroke="black" d="M1761,-85.02C1761,-105.17 1761,-134.8 1761,-134.8 1761,-134.8 1202.93,-134.8 1202.93,-134.8"/>
<polygon fill="black" stroke="black" points="1202.93,-131.3 1192.93,-134.8 1202.93,-138.3 1202.93,-131.3"/>
</g>
<!-- EditProfileComponent -->
<g id="node4" class="node">
<title>EditProfileComponent</title>
<polygon fill="#ffffb3" stroke="black" points="1670.27,-84.8 1527.73,-84.8 1527.73,-48.8 1670.27,-48.8 1670.27,-84.8"/>
<text text-anchor="middle" x="1599" y="-62.6" font-family="Times,serif" font-size="14.00">EditProfileComponent</text>
</g>
<!-- EditProfileComponent&#45;&gt;AppModule -->
<g id="edge4" class="edge">
<title>EditProfileComponent&#45;&gt;AppModule</title>
<path fill="none" stroke="black" d="M1599,-85.02C1599,-103.63 1599,-129.8 1599,-129.8 1599,-129.8 1202.74,-129.8 1202.74,-129.8"/>
<polygon fill="black" stroke="black" points="1202.74,-126.3 1192.74,-129.8 1202.74,-133.3 1202.74,-126.3"/>
</g>
<!-- FilterPipe -->
<g id="node5" class="node">
<title>FilterPipe</title>
<polygon fill="#ffffb3" stroke="black" points="1509.72,-84.8 1438.28,-84.8 1438.28,-48.8 1509.72,-48.8 1509.72,-84.8"/>
<text text-anchor="middle" x="1474" y="-62.6" font-family="Times,serif" font-size="14.00">FilterPipe</text>
</g>
<!-- FilterPipe&#45;&gt;AppModule -->
<g id="edge5" class="edge">
<title>FilterPipe&#45;&gt;AppModule</title>
<path fill="none" stroke="black" d="M1474,-84.83C1474,-101.86 1474,-124.8 1474,-124.8 1474,-124.8 1202.9,-124.8 1202.9,-124.8"/>
<polygon fill="black" stroke="black" points="1202.9,-121.3 1192.9,-124.8 1202.9,-128.3 1202.9,-121.3"/>
</g>
<!-- HomeComponent -->
<g id="node6" class="node">
<title>HomeComponent</title>
<polygon fill="#ffffb3" stroke="black" points="1420.55,-84.8 1305.45,-84.8 1305.45,-48.8 1420.55,-48.8 1420.55,-84.8"/>
<text text-anchor="middle" x="1363" y="-62.6" font-family="Times,serif" font-size="14.00">HomeComponent</text>
</g>
<!-- HomeComponent&#45;&gt;AppModule -->
<g id="edge6" class="edge">
<title>HomeComponent&#45;&gt;AppModule</title>
<path fill="none" stroke="black" d="M1363,-85.04C1363,-100.37 1363,-119.8 1363,-119.8 1363,-119.8 1202.88,-119.8 1202.88,-119.8"/>
<polygon fill="black" stroke="black" points="1202.88,-116.3 1192.88,-119.8 1202.88,-123.3 1202.88,-116.3"/>
</g>
<!-- LoginComponent -->
<g id="node7" class="node">
<title>LoginComponent</title>
<polygon fill="#ffffb3" stroke="black" points="1287.27,-84.8 1172.73,-84.8 1172.73,-48.8 1287.27,-48.8 1287.27,-84.8"/>
<text text-anchor="middle" x="1230" y="-62.6" font-family="Times,serif" font-size="14.00">LoginComponent</text>
</g>
<!-- LoginComponent&#45;&gt;AppModule -->
<g id="edge7" class="edge">
<title>LoginComponent&#45;&gt;AppModule</title>
<path fill="none" stroke="black" d="M1182.72,-84.91C1182.72,-84.91 1182.72,-103.79 1182.72,-103.79"/>
<polygon fill="black" stroke="black" points="1179.22,-103.79 1182.72,-113.79 1186.22,-103.79 1179.22,-103.79"/>
</g>
<!-- MasterAnswerComponent -->
<g id="node8" class="node">
<title>MasterAnswerComponent</title>
<polygon fill="#ffffb3" stroke="black" points="1154.75,-84.8 991.25,-84.8 991.25,-48.8 1154.75,-48.8 1154.75,-84.8"/>
<text text-anchor="middle" x="1073" y="-62.6" font-family="Times,serif" font-size="14.00">MasterAnswerComponent</text>
</g>
<!-- MasterAnswerComponent&#45;&gt;AppModule -->
<g id="edge8" class="edge">
<title>MasterAnswerComponent&#45;&gt;AppModule</title>
<path fill="none" stroke="black" d="M1132.02,-84.91C1132.02,-84.91 1132.02,-103.79 1132.02,-103.79"/>
<polygon fill="black" stroke="black" points="1128.52,-103.79 1132.02,-113.79 1135.52,-103.79 1128.52,-103.79"/>
</g>
<!-- QuizAnswerComponent -->
<g id="node9" class="node">
<title>QuizAnswerComponent</title>
<polygon fill="#ffffb3" stroke="black" points="973.09,-84.8 820.91,-84.8 820.91,-48.8 973.09,-48.8 973.09,-84.8"/>
<text text-anchor="middle" x="897" y="-62.6" font-family="Times,serif" font-size="14.00">QuizAnswerComponent</text>
</g>
<!-- QuizAnswerComponent&#45;&gt;AppModule -->
<g id="edge9" class="edge">
<title>QuizAnswerComponent&#45;&gt;AppModule</title>
<path fill="none" stroke="black" d="M897,-85.04C897,-100.37 897,-119.8 897,-119.8 897,-119.8 1099.06,-119.8 1099.06,-119.8"/>
<polygon fill="black" stroke="black" points="1099.06,-123.3 1109.06,-119.8 1099.06,-116.3 1099.06,-123.3"/>
</g>
<!-- QuizCreateComponent -->
<g id="node10" class="node">
<title>QuizCreateComponent</title>
<polygon fill="#ffffb3" stroke="black" points="802.58,-84.8 657.42,-84.8 657.42,-48.8 802.58,-48.8 802.58,-84.8"/>
<text text-anchor="middle" x="730" y="-62.6" font-family="Times,serif" font-size="14.00">QuizCreateComponent</text>
</g>
<!-- QuizCreateComponent&#45;&gt;AppModule -->
<g id="edge10" class="edge">
<title>QuizCreateComponent&#45;&gt;AppModule</title>
<path fill="none" stroke="black" d="M730,-84.83C730,-101.86 730,-124.8 730,-124.8 730,-124.8 1099.09,-124.8 1099.09,-124.8"/>
<polygon fill="black" stroke="black" points="1099.09,-128.3 1109.09,-124.8 1099.09,-121.3 1099.09,-128.3"/>
</g>
<!-- QuizInfoComponent -->
<g id="node11" class="node">
<title>QuizInfoComponent</title>
<polygon fill="#ffffb3" stroke="black" points="639.87,-84.8 508.13,-84.8 508.13,-48.8 639.87,-48.8 639.87,-84.8"/>
<text text-anchor="middle" x="574" y="-62.6" font-family="Times,serif" font-size="14.00">QuizInfoComponent</text>
</g>
<!-- QuizInfoComponent&#45;&gt;AppModule -->
<g id="edge11" class="edge">
<title>QuizInfoComponent&#45;&gt;AppModule</title>
<path fill="none" stroke="black" d="M574,-85.02C574,-103.63 574,-129.8 574,-129.8 574,-129.8 1099.04,-129.8 1099.04,-129.8"/>
<polygon fill="black" stroke="black" points="1099.04,-133.3 1109.04,-129.8 1099.04,-126.3 1099.04,-133.3"/>
</g>
<!-- QuizSearchComponent -->
<g id="node12" class="node">
<title>QuizSearchComponent</title>
<polygon fill="#ffffb3" stroke="black" points="490.14,-84.8 343.86,-84.8 343.86,-48.8 490.14,-48.8 490.14,-84.8"/>
<text text-anchor="middle" x="417" y="-62.6" font-family="Times,serif" font-size="14.00">QuizSearchComponent</text>
</g>
<!-- QuizSearchComponent&#45;&gt;AppModule -->
<g id="edge12" class="edge">
<title>QuizSearchComponent&#45;&gt;AppModule</title>
<path fill="none" stroke="black" d="M417,-85.02C417,-105.17 417,-134.8 417,-134.8 417,-134.8 1099.17,-134.8 1099.17,-134.8"/>
<polygon fill="black" stroke="black" points="1099.17,-138.3 1109.17,-134.8 1099.17,-131.3 1099.17,-138.3"/>
</g>
<!-- RegistrationComponent -->
<g id="node13" class="node">
<title>RegistrationComponent</title>
<polygon fill="#ffffb3" stroke="black" points="325.77,-84.8 176.23,-84.8 176.23,-48.8 325.77,-48.8 325.77,-84.8"/>
<text text-anchor="middle" x="251" y="-62.6" font-family="Times,serif" font-size="14.00">RegistrationComponent</text>
</g>
<!-- RegistrationComponent&#45;&gt;AppModule -->
<g id="edge13" class="edge">
<title>RegistrationComponent&#45;&gt;AppModule</title>
<path fill="none" stroke="black" d="M251,-84.84C251,-106.46 251,-139.8 251,-139.8 251,-139.8 1099.1,-139.8 1099.1,-139.8"/>
<polygon fill="black" stroke="black" points="1099.1,-143.3 1109.1,-139.8 1099.1,-136.3 1099.1,-143.3"/>
</g>
<!-- AppComponent  -->
<g id="node16" class="node">
<title>AppComponent </title>
<polygon fill="#80b1d3" stroke="black" points="1205.44,-214.8 1096.56,-214.8 1096.56,-178.8 1205.44,-178.8 1205.44,-214.8"/>
<text text-anchor="middle" x="1151" y="-192.6" font-family="Times,serif" font-size="14.00">AppComponent </text>
</g>
<!-- AppModule&#45;&gt;AppComponent  -->
<g id="edge15" class="edge">
<title>AppModule&#45;&gt;AppComponent </title>
<path fill="none" stroke="black" stroke-dasharray="1,5" d="M1151,-149.91C1151,-149.91 1151,-168.79 1151,-168.79"/>
<polygon fill="black" stroke="black" points="1147.5,-168.79 1151,-178.79 1154.5,-168.79 1147.5,-168.79"/>
</g>
<!-- AppRoutingModule -->
<g id="node15" class="node">
<title>AppRoutingModule</title>
<polygon fill="#8dd3c7" stroke="black" points="152.28,-84.8 149.28,-88.8 128.28,-88.8 125.28,-84.8 23.72,-84.8 23.72,-48.8 152.28,-48.8 152.28,-84.8"/>
<text text-anchor="middle" x="88" y="-62.6" font-family="Times,serif" font-size="14.00">AppRoutingModule</text>
</g>
<!-- AppRoutingModule&#45;&gt;AppModule -->
<g id="edge14" class="edge">
<title>AppRoutingModule&#45;&gt;AppModule</title>
<path fill="none" stroke="black" d="M88,-84.89C88,-107.93 88,-144.8 88,-144.8 88,-144.8 1099.33,-144.8 1099.33,-144.8"/>
<polygon fill="black" stroke="black" points="1099.33,-148.3 1109.33,-144.8 1099.33,-141.3 1099.33,-148.3"/>
</g>
</g>
</svg>
