<?xml version="1.0" encoding="UTF-8" standalone="no"?>
<!DOCTYPE svg PUBLIC "-//W3C//DTD SVG 1.1//EN"
 "http://www.w3.org/Graphics/SVG/1.1/DTD/svg11.dtd">
<!-- Generated by graphviz version 5.0.0 (20220707.1540)
 -->
<!-- Title: dependencies Pages: 1 -->
<svg width="3039pt" height="247pt"
 viewBox="0.00 0.00 3039.00 246.80" xmlns="http://www.w3.org/2000/svg" xmlns:xlink="http://www.w3.org/1999/xlink">
<g id="graph0" class="graph" transform="scale(1 1) rotate(0) translate(4 242.8)">
<title>dependencies</title>
<polygon fill="white" stroke="transparent" points="-4,4 -4,-242.8 3035,-242.8 3035,4 -4,4"/>
<text text-anchor="middle" x="1515.5" y="-8.2" font-family="sans-serif" font-size="14.00">dependencies</text>
<g id="clust1" class="cluster">
<title>cluster_AppModule</title>
<polygon fill="none" stroke="black" stroke-dasharray="1,5" points="8,-32.8 8,-230.8 3023,-230.8 3023,-32.8 8,-32.8"/>
</g>
<g id="clust22" class="cluster">
<title>cluster_AppModule_imports</title>
<polygon fill="none" stroke="black" points="2871,-40.8 2871,-92.8 3015,-92.8 3015,-40.8 2871,-40.8"/>
</g>
<g id="clust24" class="cluster">
<title>cluster_AppModule_bootstrap</title>
<polygon fill="none" stroke="black" points="1571,-170.8 1571,-222.8 1695,-222.8 1695,-170.8 1571,-170.8"/>
</g>
<g id="clust2" class="cluster">
<title>cluster_AppModule_declarations</title>
<polygon fill="none" stroke="black" points="16,-40.8 16,-92.8 2863,-92.8 2863,-40.8 16,-40.8"/>
</g>
<!-- AppComponent -->
<g id="node1" class="node">
<title>AppComponent</title>
<polygon fill="#ffffb3" stroke="black" points="2854.94,-84.8 2749.06,-84.8 2749.06,-48.8 2854.94,-48.8 2854.94,-84.8"/>
<text text-anchor="middle" x="2802" y="-62.6" font-family="Times,serif" font-size="14.00">AppComponent</text>
</g>
<!-- AppModule -->
<g id="node20" class="node">
<title>AppModule</title>
<polygon fill="#8dd3c7" stroke="black" points="1674.66,-149.8 1671.66,-153.8 1650.66,-153.8 1647.66,-149.8 1591.34,-149.8 1591.34,-113.8 1674.66,-113.8 1674.66,-149.8"/>
<text text-anchor="middle" x="1633" y="-127.6" font-family="Times,serif" font-size="14.00">AppModule</text>
</g>
<!-- AppComponent&#45;&gt;AppModule -->
<g id="edge1" class="edge">
<title>AppComponent&#45;&gt;AppModule</title>
<path fill="none" stroke="black" d="M2802,-84.81C2802,-107.29 2802,-142.8 2802,-142.8 2802,-142.8 1684.95,-142.8 1684.95,-142.8"/>
<polygon fill="black" stroke="black" points="1684.95,-139.3 1674.95,-142.8 1684.95,-146.3 1684.95,-139.3"/>
</g>
<!-- BookFilterPipe -->
<g id="node2" class="node">
<title>BookFilterPipe</title>
<polygon fill="#ffffb3" stroke="black" points="2730.56,-84.8 2629.44,-84.8 2629.44,-48.8 2730.56,-48.8 2730.56,-84.8"/>
<text text-anchor="middle" x="2680" y="-62.6" font-family="Times,serif" font-size="14.00">BookFilterPipe</text>
</g>
<!-- BookFilterPipe&#45;&gt;AppModule -->
<g id="edge2" class="edge">
<title>BookFilterPipe&#45;&gt;AppModule</title>
<path fill="none" stroke="black" d="M2680,-84.84C2680,-106.46 2680,-139.8 2680,-139.8 2680,-139.8 1684.69,-139.8 1684.69,-139.8"/>
<polygon fill="black" stroke="black" points="1684.69,-136.3 1674.69,-139.8 1684.69,-143.3 1684.69,-136.3"/>
</g>
<!-- BookmarksComponent -->
<g id="node3" class="node">
<title>BookmarksComponent</title>
<polygon fill="#ffffb3" stroke="black" points="2610.88,-84.8 2465.12,-84.8 2465.12,-48.8 2610.88,-48.8 2610.88,-84.8"/>
<text text-anchor="middle" x="2538" y="-62.6" font-family="Times,serif" font-size="14.00">BookmarksComponent</text>
</g>
<!-- BookmarksComponent&#45;&gt;AppModule -->
<g id="edge3" class="edge">
<title>BookmarksComponent&#45;&gt;AppModule</title>
<path fill="none" stroke="black" d="M2538,-84.93C2538,-105.37 2538,-135.8 2538,-135.8 2538,-135.8 1684.83,-135.8 1684.83,-135.8"/>
<polygon fill="black" stroke="black" points="1684.84,-132.3 1674.83,-135.8 1684.83,-139.3 1684.84,-132.3"/>
</g>
<!-- EditProfileComponent -->
<g id="node4" class="node">
<title>EditProfileComponent</title>
<polygon fill="#ffffb3" stroke="black" points="2447.27,-84.8 2304.73,-84.8 2304.73,-48.8 2447.27,-48.8 2447.27,-84.8"/>
<text text-anchor="middle" x="2376" y="-62.6" font-family="Times,serif" font-size="14.00">EditProfileComponent</text>
</g>
<!-- EditProfileComponent&#45;&gt;AppModule -->
<g id="edge4" class="edge">
<title>EditProfileComponent&#45;&gt;AppModule</title>
<path fill="none" stroke="black" d="M2376,-84.91C2376,-104.14 2376,-131.8 2376,-131.8 2376,-131.8 1684.81,-131.8 1684.81,-131.8"/>
<polygon fill="black" stroke="black" points="1684.81,-128.3 1674.81,-131.8 1684.81,-135.3 1684.81,-128.3"/>
</g>
<!-- FilterFriendsPipe -->
<g id="node5" class="node">
<title>FilterFriendsPipe</title>
<polygon fill="#ffffb3" stroke="black" points="2286.72,-84.8 2173.28,-84.8 2173.28,-48.8 2286.72,-48.8 2286.72,-84.8"/>
<text text-anchor="middle" x="2230" y="-62.6" font-family="Times,serif" font-size="14.00">FilterFriendsPipe</text>
</g>
<!-- FilterFriendsPipe&#45;&gt;AppModule -->
<g id="edge5" class="edge">
<title>FilterFriendsPipe&#45;&gt;AppModule</title>
<path fill="none" stroke="black" d="M2230,-85.07C2230,-103.36 2230,-128.8 2230,-128.8 2230,-128.8 1684.98,-128.8 1684.98,-128.8"/>
<polygon fill="black" stroke="black" points="1684.98,-125.3 1674.98,-128.8 1684.98,-132.3 1684.98,-125.3"/>
</g>
<!-- FilterPipe -->
<g id="node6" class="node">
<title>FilterPipe</title>
<polygon fill="#ffffb3" stroke="black" points="2155.72,-84.8 2084.28,-84.8 2084.28,-48.8 2155.72,-48.8 2155.72,-84.8"/>
<text text-anchor="middle" x="2120" y="-62.6" font-family="Times,serif" font-size="14.00">FilterPipe</text>
</g>
<!-- FilterPipe&#45;&gt;AppModule -->
<g id="edge6" class="edge">
<title>FilterPipe&#45;&gt;AppModule</title>
<path fill="none" stroke="black" d="M2120,-84.83C2120,-101.86 2120,-124.8 2120,-124.8 2120,-124.8 1684.94,-124.8 1684.94,-124.8"/>
<polygon fill="black" stroke="black" points="1684.94,-121.3 1674.94,-124.8 1684.94,-128.3 1684.94,-121.3"/>
</g>
<!-- FriendInfoComponent -->
<g id="node7" class="node">
<title>FriendInfoComponent</title>
<polygon fill="#ffffb3" stroke="black" points="2066.71,-84.8 1925.29,-84.8 1925.29,-48.8 2066.71,-48.8 2066.71,-84.8"/>
<text text-anchor="middle" x="1996" y="-62.6" font-family="Times,serif" font-size="14.00">FriendInfoComponent</text>
</g>
<!-- FriendInfoComponent&#45;&gt;AppModule -->
<g id="edge7" class="edge">
<title>FriendInfoComponent&#45;&gt;AppModule</title>
<path fill="none" stroke="black" d="M1996,-84.81C1996,-100.85 1996,-121.8 1996,-121.8 1996,-121.8 1685,-121.8 1685,-121.8"/>
<polygon fill="black" stroke="black" points="1685,-118.3 1675,-121.8 1685,-125.3 1685,-118.3"/>
</g>
<!-- FriendsComponent -->
<g id="node8" class="node">
<title>FriendsComponent</title>
<polygon fill="#ffffb3" stroke="black" points="1907.83,-84.8 1784.17,-84.8 1784.17,-48.8 1907.83,-48.8 1907.83,-84.8"/>
<text text-anchor="middle" x="1846" y="-62.6" font-family="Times,serif" font-size="14.00">FriendsComponent</text>
</g>
<!-- FriendsComponent&#45;&gt;AppModule -->
<g id="edge8" class="edge">
<title>FriendsComponent&#45;&gt;AppModule</title>
<path fill="none" stroke="black" d="M1846,-84.92C1846,-99.58 1846,-117.8 1846,-117.8 1846,-117.8 1684.83,-117.8 1684.83,-117.8"/>
<polygon fill="black" stroke="black" points="1684.83,-114.3 1674.83,-117.8 1684.83,-121.3 1684.83,-114.3"/>
</g>
<!-- HomeComponent -->
<g id="node9" class="node">
<title>HomeComponent</title>
<polygon fill="#ffffb3" stroke="black" points="1766.55,-84.8 1651.45,-84.8 1651.45,-48.8 1766.55,-48.8 1766.55,-84.8"/>
<text text-anchor="middle" x="1709" y="-62.6" font-family="Times,serif" font-size="14.00">HomeComponent</text>
</g>
<!-- HomeComponent&#45;&gt;AppModule -->
<g id="edge9" class="edge">
<title>HomeComponent&#45;&gt;AppModule</title>
<path fill="none" stroke="black" d="M1663.03,-84.91C1663.03,-84.91 1663.03,-103.79 1663.03,-103.79"/>
<polygon fill="black" stroke="black" points="1659.53,-103.79 1663.03,-113.79 1666.53,-103.79 1659.53,-103.79"/>
</g>
<!-- LeaderboardComponent -->
<g id="node10" class="node">
<title>LeaderboardComponent</title>
<polygon fill="#ffffb3" stroke="black" points="1633.06,-84.8 1480.94,-84.8 1480.94,-48.8 1633.06,-48.8 1633.06,-84.8"/>
<text text-anchor="middle" x="1557" y="-62.6" font-family="Times,serif" font-size="14.00">LeaderboardComponent</text>
</g>
<!-- LeaderboardComponent&#45;&gt;AppModule -->
<g id="edge10" class="edge">
<title>LeaderboardComponent&#45;&gt;AppModule</title>
<path fill="none" stroke="black" d="M1612.1,-84.91C1612.1,-84.91 1612.1,-103.79 1612.1,-103.79"/>
<polygon fill="black" stroke="black" points="1608.6,-103.79 1612.1,-113.79 1615.6,-103.79 1608.6,-103.79"/>
</g>
<!-- LoginComponent -->
<g id="node11" class="node">
<title>LoginComponent</title>
<polygon fill="#ffffb3" stroke="black" points="1463.27,-84.8 1348.73,-84.8 1348.73,-48.8 1463.27,-48.8 1463.27,-84.8"/>
<text text-anchor="middle" x="1406" y="-62.6" font-family="Times,serif" font-size="14.00">LoginComponent</text>
</g>
<!-- LoginComponent&#45;&gt;AppModule -->
<g id="edge11" class="edge">
<title>LoginComponent&#45;&gt;AppModule</title>
<path fill="none" stroke="black" d="M1406,-84.92C1406,-99.58 1406,-117.8 1406,-117.8 1406,-117.8 1581.1,-117.8 1581.1,-117.8"/>
<polygon fill="black" stroke="black" points="1581.1,-121.3 1591.1,-117.8 1581.1,-114.3 1581.1,-121.3"/>
</g>
<!-- MasterAnswerComponent -->
<g id="node12" class="node">
<title>MasterAnswerComponent</title>
<polygon fill="#ffffb3" stroke="black" points="1330.75,-84.8 1167.25,-84.8 1167.25,-48.8 1330.75,-48.8 1330.75,-84.8"/>
<text text-anchor="middle" x="1249" y="-62.6" font-family="Times,serif" font-size="14.00">MasterAnswerComponent</text>
</g>
<!-- MasterAnswerComponent&#45;&gt;AppModule -->
<g id="edge12" class="edge">
<title>MasterAnswerComponent&#45;&gt;AppModule</title>
<path fill="none" stroke="black" d="M1249,-84.81C1249,-100.85 1249,-121.8 1249,-121.8 1249,-121.8 1581.17,-121.8 1581.17,-121.8"/>
<polygon fill="black" stroke="black" points="1581.17,-125.3 1591.17,-121.8 1581.17,-118.3 1581.17,-125.3"/>
</g>
<!-- QuizAnswerComponent -->
<g id="node13" class="node">
<title>QuizAnswerComponent</title>
<polygon fill="#ffffb3" stroke="black" points="1149.09,-84.8 996.91,-84.8 996.91,-48.8 1149.09,-48.8 1149.09,-84.8"/>
<text text-anchor="middle" x="1073" y="-62.6" font-family="Times,serif" font-size="14.00">QuizAnswerComponent</text>
</g>
<!-- QuizAnswerComponent&#45;&gt;AppModule -->
<g id="edge13" class="edge">
<title>QuizAnswerComponent&#45;&gt;AppModule</title>
<path fill="none" stroke="black" d="M1073,-84.83C1073,-101.86 1073,-124.8 1073,-124.8 1073,-124.8 1580.91,-124.8 1580.91,-124.8"/>
<polygon fill="black" stroke="black" points="1580.91,-128.3 1590.91,-124.8 1580.91,-121.3 1580.91,-128.3"/>
</g>
<!-- QuizCreateComponent -->
<g id="node14" class="node">
<title>QuizCreateComponent</title>
<polygon fill="#ffffb3" stroke="black" points="978.58,-84.8 833.42,-84.8 833.42,-48.8 978.58,-48.8 978.58,-84.8"/>
<text text-anchor="middle" x="906" y="-62.6" font-family="Times,serif" font-size="14.00">QuizCreateComponent</text>
</g>
<!-- QuizCreateComponent&#45;&gt;AppModule -->
<g id="edge14" class="edge">
<title>QuizCreateComponent&#45;&gt;AppModule</title>
<path fill="none" stroke="black" d="M906,-85.07C906,-103.36 906,-128.8 906,-128.8 906,-128.8 1581.3,-128.8 1581.3,-128.8"/>
<polygon fill="black" stroke="black" points="1581.3,-132.3 1591.3,-128.8 1581.3,-125.3 1581.3,-132.3"/>
</g>
<!-- QuizInfoComponent -->
<g id="node15" class="node">
<title>QuizInfoComponent</title>
<polygon fill="#ffffb3" stroke="black" points="815.87,-84.8 684.13,-84.8 684.13,-48.8 815.87,-48.8 815.87,-84.8"/>
<text text-anchor="middle" x="750" y="-62.6" font-family="Times,serif" font-size="14.00">QuizInfoComponent</text>
</g>
<!-- QuizInfoComponent&#45;&gt;AppModule -->
<g id="edge15" class="edge">
<title>QuizInfoComponent&#45;&gt;AppModule</title>
<path fill="none" stroke="black" d="M750,-84.91C750,-104.14 750,-131.8 750,-131.8 750,-131.8 1581.3,-131.8 1581.3,-131.8"/>
<polygon fill="black" stroke="black" points="1581.3,-135.3 1591.3,-131.8 1581.3,-128.3 1581.3,-135.3"/>
</g>
<!-- QuizResultComponent -->
<g id="node16" class="node">
<title>QuizResultComponent</title>
<polygon fill="#ffffb3" stroke="black" points="666.32,-84.8 521.68,-84.8 521.68,-48.8 666.32,-48.8 666.32,-84.8"/>
<text text-anchor="middle" x="594" y="-62.6" font-family="Times,serif" font-size="14.00">QuizResultComponent</text>
</g>
<!-- QuizResultComponent&#45;&gt;AppModule -->
<g id="edge16" class="edge">
<title>QuizResultComponent&#45;&gt;AppModule</title>
<path fill="none" stroke="black" d="M594,-84.93C594,-105.37 594,-135.8 594,-135.8 594,-135.8 1581.31,-135.8 1581.31,-135.8"/>
<polygon fill="black" stroke="black" points="1581.31,-139.3 1591.31,-135.8 1581.31,-132.3 1581.31,-139.3"/>
</g>
<!-- QuizSearchComponent -->
<g id="node17" class="node">
<title>QuizSearchComponent</title>
<polygon fill="#ffffb3" stroke="black" points="504.14,-84.8 357.86,-84.8 357.86,-48.8 504.14,-48.8 504.14,-84.8"/>
<text text-anchor="middle" x="431" y="-62.6" font-family="Times,serif" font-size="14.00">QuizSearchComponent</text>
</g>
<!-- QuizSearchComponent&#45;&gt;AppModule -->
<g id="edge17" class="edge">
<title>QuizSearchComponent&#45;&gt;AppModule</title>
<path fill="none" stroke="black" d="M431,-84.84C431,-106.46 431,-139.8 431,-139.8 431,-139.8 1581.28,-139.8 1581.28,-139.8"/>
<polygon fill="black" stroke="black" points="1581.28,-143.3 1591.28,-139.8 1581.28,-136.3 1581.28,-143.3"/>
</g>
<!-- QuizTypeinComponent -->
<g id="node18" class="node">
<title>QuizTypeinComponent</title>
<polygon fill="#ffffb3" stroke="black" points="340.2,-84.8 191.8,-84.8 191.8,-48.8 340.2,-48.8 340.2,-84.8"/>
<text text-anchor="middle" x="266" y="-62.6" font-family="Times,serif" font-size="14.00">QuizTypeinComponent</text>
</g>
<!-- QuizTypeinComponent&#45;&gt;AppModule -->
<g id="edge18" class="edge">
<title>QuizTypeinComponent&#45;&gt;AppModule</title>
<path fill="none" stroke="black" d="M266,-84.81C266,-107.29 266,-142.8 266,-142.8 266,-142.8 1580.97,-142.8 1580.97,-142.8"/>
<polygon fill="black" stroke="black" points="1580.97,-146.3 1590.97,-142.8 1580.97,-139.3 1580.97,-146.3"/>
</g>
<!-- RegistrationComponent -->
<g id="node19" class="node">
<title>RegistrationComponent</title>
<polygon fill="#ffffb3" stroke="black" points="173.77,-84.8 24.23,-84.8 24.23,-48.8 173.77,-48.8 173.77,-84.8"/>
<text text-anchor="middle" x="99" y="-62.6" font-family="Times,serif" font-size="14.00">RegistrationComponent</text>
</g>
<!-- RegistrationComponent&#45;&gt;AppModule -->
<g id="edge19" class="edge">
<title>RegistrationComponent&#45;&gt;AppModule</title>
<path fill="none" stroke="black" d="M99,-84.95C99,-108.56 99,-146.8 99,-146.8 99,-146.8 1581.17,-146.8 1581.17,-146.8"/>
<polygon fill="black" stroke="black" points="1581.17,-150.3 1591.17,-146.8 1581.17,-143.3 1581.17,-150.3"/>
</g>
<!-- AppComponent  -->
<g id="node22" class="node">
<title>AppComponent </title>
<polygon fill="#80b1d3" stroke="black" points="1687.44,-214.8 1578.56,-214.8 1578.56,-178.8 1687.44,-178.8 1687.44,-214.8"/>
<text text-anchor="middle" x="1633" y="-192.6" font-family="Times,serif" font-size="14.00">AppComponent </text>
</g>
<!-- AppModule&#45;&gt;AppComponent  -->
<g id="edge21" class="edge">
<title>AppModule&#45;&gt;AppComponent </title>
<path fill="none" stroke="black" stroke-dasharray="1,5" d="M1633,-149.91C1633,-149.91 1633,-168.79 1633,-168.79"/>
<polygon fill="black" stroke="black" points="1629.5,-168.79 1633,-178.79 1636.5,-168.79 1629.5,-168.79"/>
</g>
<!-- AppRoutingModule -->
<g id="node21" class="node">
<title>AppRoutingModule</title>
<polygon fill="#8dd3c7" stroke="black" points="3007.28,-84.8 3004.28,-88.8 2983.28,-88.8 2980.28,-84.8 2878.72,-84.8 2878.72,-48.8 3007.28,-48.8 3007.28,-84.8"/>
<text text-anchor="middle" x="2943" y="-62.6" font-family="Times,serif" font-size="14.00">AppRoutingModule</text>
</g>
<!-- AppRoutingModule&#45;&gt;AppModule -->
<g id="edge20" class="edge">
<title>AppRoutingModule&#45;&gt;AppModule</title>
<path fill="none" stroke="black" d="M2943,-84.95C2943,-108.56 2943,-146.8 2943,-146.8 2943,-146.8 1684.74,-146.8 1684.74,-146.8"/>
<polygon fill="black" stroke="black" points="1684.74,-143.3 1674.74,-146.8 1684.74,-150.3 1684.74,-143.3"/>
</g>
</g>
</svg>
