<?xml version="1.0" encoding="UTF-8" standalone="no"?>
<!DOCTYPE svg PUBLIC "-//W3C//DTD SVG 1.1//EN"
 "http://www.w3.org/Graphics/SVG/1.1/DTD/svg11.dtd">
<!-- Generated by graphviz version 5.0.0 (20220707.1540)
 -->
<!-- Title: dependencies Pages: 1 -->
<svg width="1228pt" height="247pt"
 viewBox="0.00 0.00 1228.00 246.80" xmlns="http://www.w3.org/2000/svg" xmlns:xlink="http://www.w3.org/1999/xlink">
<g id="graph0" class="graph" transform="scale(1 1) rotate(0) translate(4 242.8)">
<title>dependencies</title>
<polygon fill="white" stroke="transparent" points="-4,4 -4,-242.8 1224,-242.8 1224,4 -4,4"/>
<text text-anchor="middle" x="610" y="-8.2" font-family="sans-serif" font-size="14.00">dependencies</text>
<g id="clust1" class="cluster">
<title>cluster_AppModule</title>
<polygon fill="none" stroke="black" stroke-dasharray="1,5" points="8,-32.8 8,-230.8 1212,-230.8 1212,-32.8 8,-32.8"/>
</g>
<g id="clust10" class="cluster">
<title>cluster_AppModule_imports</title>
<polygon fill="none" stroke="black" points="1060,-40.8 1060,-92.8 1204,-92.8 1204,-40.8 1060,-40.8"/>
</g>
<g id="clust12" class="cluster">
<title>cluster_AppModule_bootstrap</title>
<polygon fill="none" stroke="black" points="573,-170.8 573,-222.8 697,-222.8 697,-170.8 573,-170.8"/>
</g>
<g id="clust2" class="cluster">
<title>cluster_AppModule_declarations</title>
<polygon fill="none" stroke="black" points="16,-40.8 16,-92.8 1052,-92.8 1052,-40.8 16,-40.8"/>
</g>
<!-- AppComponent -->
<g id="node1" class="node">
<title>AppComponent</title>
<polygon fill="#ffffb3" stroke="black" points="1043.94,-84.8 938.06,-84.8 938.06,-48.8 1043.94,-48.8 1043.94,-84.8"/>
<text text-anchor="middle" x="991" y="-62.6" font-family="Times,serif" font-size="14.00">AppComponent</text>
</g>
<!-- AppModule -->
<g id="node8" class="node">
<title>AppModule</title>
<polygon fill="#8dd3c7" stroke="black" points="676.66,-149.8 673.66,-153.8 652.66,-153.8 649.66,-149.8 593.34,-149.8 593.34,-113.8 676.66,-113.8 676.66,-149.8"/>
<text text-anchor="middle" x="635" y="-127.6" font-family="Times,serif" font-size="14.00">AppModule</text>
</g>
<!-- AppComponent&#45;&gt;AppModule -->
<g id="edge1" class="edge">
<title>AppComponent&#45;&gt;AppModule</title>
<path fill="none" stroke="black" d="M991,-84.91C991,-104.14 991,-131.8 991,-131.8 991,-131.8 686.88,-131.8 686.88,-131.8"/>
<polygon fill="black" stroke="black" points="686.88,-128.3 676.88,-131.8 686.88,-135.3 686.88,-128.3"/>
</g>
<!-- EditProfileComponent -->
<g id="node2" class="node">
<title>EditProfileComponent</title>
<polygon fill="#ffffb3" stroke="black" points="920.27,-84.8 777.73,-84.8 777.73,-48.8 920.27,-48.8 920.27,-84.8"/>
<text text-anchor="middle" x="849" y="-62.6" font-family="Times,serif" font-size="14.00">EditProfileComponent</text>
</g>
<!-- EditProfileComponent&#45;&gt;AppModule -->
<g id="edge2" class="edge">
<title>EditProfileComponent&#45;&gt;AppModule</title>
<path fill="none" stroke="black" d="M849,-84.83C849,-101.2 849,-122.8 849,-122.8 849,-122.8 686.77,-122.8 686.77,-122.8"/>
<polygon fill="black" stroke="black" points="686.77,-119.3 676.77,-122.8 686.77,-126.3 686.77,-119.3"/>
</g>
<!-- HomeComponent -->
<g id="node3" class="node">
<title>HomeComponent</title>
<polygon fill="#ffffb3" stroke="black" points="759.55,-84.8 644.45,-84.8 644.45,-48.8 759.55,-48.8 759.55,-84.8"/>
<text text-anchor="middle" x="702" y="-62.6" font-family="Times,serif" font-size="14.00">HomeComponent</text>
</g>
<!-- HomeComponent&#45;&gt;AppModule -->
<g id="edge3" class="edge">
<title>HomeComponent&#45;&gt;AppModule</title>
<path fill="none" stroke="black" d="M660.53,-84.91C660.53,-84.91 660.53,-103.79 660.53,-103.79"/>
<polygon fill="black" stroke="black" points="657.03,-103.79 660.53,-113.79 664.03,-103.79 657.03,-103.79"/>
</g>
<!-- LoginComponent -->
<g id="node4" class="node">
<title>LoginComponent</title>
<polygon fill="#ffffb3" stroke="black" points="626.27,-84.8 511.73,-84.8 511.73,-48.8 626.27,-48.8 626.27,-84.8"/>
<text text-anchor="middle" x="569" y="-62.6" font-family="Times,serif" font-size="14.00">LoginComponent</text>
</g>
<!-- LoginComponent&#45;&gt;AppModule -->
<g id="edge4" class="edge">
<title>LoginComponent&#45;&gt;AppModule</title>
<path fill="none" stroke="black" d="M609.78,-84.91C609.78,-84.91 609.78,-103.79 609.78,-103.79"/>
<polygon fill="black" stroke="black" points="606.28,-103.79 609.78,-113.79 613.28,-103.79 606.28,-103.79"/>
</g>
<!-- QuizAnswerComponent -->
<g id="node5" class="node">
<title>QuizAnswerComponent</title>
<polygon fill="#ffffb3" stroke="black" points="494.09,-84.8 341.91,-84.8 341.91,-48.8 494.09,-48.8 494.09,-84.8"/>
<text text-anchor="middle" x="418" y="-62.6" font-family="Times,serif" font-size="14.00">QuizAnswerComponent</text>
</g>
<!-- QuizAnswerComponent&#45;&gt;AppModule -->
<g id="edge5" class="edge">
<title>QuizAnswerComponent&#45;&gt;AppModule</title>
<path fill="none" stroke="black" d="M418,-84.83C418,-101.2 418,-122.8 418,-122.8 418,-122.8 583.16,-122.8 583.16,-122.8"/>
<polygon fill="black" stroke="black" points="583.16,-126.3 593.16,-122.8 583.16,-119.3 583.16,-126.3"/>
</g>
<!-- QuizInfoComponent -->
<g id="node6" class="node">
<title>QuizInfoComponent</title>
<polygon fill="#ffffb3" stroke="black" points="323.87,-84.8 192.13,-84.8 192.13,-48.8 323.87,-48.8 323.87,-84.8"/>
<text text-anchor="middle" x="258" y="-62.6" font-family="Times,serif" font-size="14.00">QuizInfoComponent</text>
</g>
<!-- QuizInfoComponent&#45;&gt;AppModule -->
<g id="edge6" class="edge">
<title>QuizInfoComponent&#45;&gt;AppModule</title>
<path fill="none" stroke="black" d="M258,-84.91C258,-104.14 258,-131.8 258,-131.8 258,-131.8 583.21,-131.8 583.21,-131.8"/>
<polygon fill="black" stroke="black" points="583.21,-135.3 593.21,-131.8 583.21,-128.3 583.21,-135.3"/>
</g>
<!-- RegistrationComponent -->
<g id="node7" class="node">
<title>RegistrationComponent</title>
<polygon fill="#ffffb3" stroke="black" points="173.77,-84.8 24.23,-84.8 24.23,-48.8 173.77,-48.8 173.77,-84.8"/>
<text text-anchor="middle" x="99" y="-62.6" font-family="Times,serif" font-size="14.00">RegistrationComponent</text>
</g>
<!-- RegistrationComponent&#45;&gt;AppModule -->
<g id="edge7" class="edge">
<title>RegistrationComponent&#45;&gt;AppModule</title>
<path fill="none" stroke="black" d="M99,-85.09C99,-107.01 99,-140.8 99,-140.8 99,-140.8 582.94,-140.8 582.94,-140.8"/>
<polygon fill="black" stroke="black" points="582.94,-144.3 592.94,-140.8 582.94,-137.3 582.94,-144.3"/>
</g>
<!-- AppComponent  -->
<g id="node10" class="node">
<title>AppComponent </title>
<polygon fill="#80b1d3" stroke="black" points="689.44,-214.8 580.56,-214.8 580.56,-178.8 689.44,-178.8 689.44,-214.8"/>
<text text-anchor="middle" x="635" y="-192.6" font-family="Times,serif" font-size="14.00">AppComponent </text>
</g>
<!-- AppModule&#45;&gt;AppComponent  -->
<g id="edge9" class="edge">
<title>AppModule&#45;&gt;AppComponent </title>
<path fill="none" stroke="black" stroke-dasharray="1,5" d="M635,-149.91C635,-149.91 635,-168.79 635,-168.79"/>
<polygon fill="black" stroke="black" points="631.5,-168.79 635,-178.79 638.5,-168.79 631.5,-168.79"/>
</g>
<!-- AppRoutingModule -->
<g id="node9" class="node">
<title>AppRoutingModule</title>
<polygon fill="#8dd3c7" stroke="black" points="1196.28,-84.8 1193.28,-88.8 1172.28,-88.8 1169.28,-84.8 1067.72,-84.8 1067.72,-48.8 1196.28,-48.8 1196.28,-84.8"/>
<text text-anchor="middle" x="1132" y="-62.6" font-family="Times,serif" font-size="14.00">AppRoutingModule</text>
</g>
<!-- AppRoutingModule&#45;&gt;AppModule -->
<g id="edge8" class="edge">
<title>AppRoutingModule&#45;&gt;AppModule</title>
<path fill="none" stroke="black" d="M1132,-85.09C1132,-107.01 1132,-140.8 1132,-140.8 1132,-140.8 686.95,-140.8 686.95,-140.8"/>
<polygon fill="black" stroke="black" points="686.95,-137.3 676.95,-140.8 686.95,-144.3 686.95,-137.3"/>
</g>
</g>
</svg>
