<?xml version="1.0" encoding="UTF-8" standalone="no"?>
<!DOCTYPE svg PUBLIC "-//W3C//DTD SVG 1.1//EN"
 "http://www.w3.org/Graphics/SVG/1.1/DTD/svg11.dtd">
<!-- Generated by graphviz version 5.0.0 (20220707.1540)
 -->
<!-- Title: dependencies Pages: 1 -->
<svg width="3528pt" height="247pt"
 viewBox="0.00 0.00 3528.00 246.80" xmlns="http://www.w3.org/2000/svg" xmlns:xlink="http://www.w3.org/1999/xlink">
<g id="graph0" class="graph" transform="scale(1 1) rotate(0) translate(4 242.8)">
<title>dependencies</title>
<polygon fill="white" stroke="transparent" points="-4,4 -4,-242.8 3524,-242.8 3524,4 -4,4"/>
<text text-anchor="middle" x="1760" y="-8.2" font-family="sans-serif" font-size="14.00">dependencies</text>
<g id="clust1" class="cluster">
<title>cluster_AppModule</title>
<polygon fill="none" stroke="black" stroke-dasharray="1,5" points="8,-32.8 8,-230.8 3512,-230.8 3512,-32.8 8,-32.8"/>
</g>
<g id="clust25" class="cluster">
<title>cluster_AppModule_imports</title>
<polygon fill="none" stroke="black" points="3360,-40.8 3360,-92.8 3504,-92.8 3504,-40.8 3360,-40.8"/>
</g>
<g id="clust27" class="cluster">
<title>cluster_AppModule_bootstrap</title>
<polygon fill="none" stroke="black" points="1809,-170.8 1809,-222.8 1933,-222.8 1933,-170.8 1809,-170.8"/>
</g>
<g id="clust2" class="cluster">
<title>cluster_AppModule_declarations</title>
<polygon fill="none" stroke="black" points="16,-40.8 16,-92.8 3352,-92.8 3352,-40.8 16,-40.8"/>
</g>
<!-- AppComponent -->
<g id="node1" class="node">
<title>AppComponent</title>
<polygon fill="#ffffb3" stroke="black" points="3343.94,-84.8 3238.06,-84.8 3238.06,-48.8 3343.94,-48.8 3343.94,-84.8"/>
<text text-anchor="middle" x="3291" y="-62.6" font-family="Times,serif" font-size="14.00">AppComponent</text>
</g>
<!-- AppModule -->
<g id="node23" class="node">
<title>AppModule</title>
<polygon fill="#8dd3c7" stroke="black" points="1912.66,-149.8 1909.66,-153.8 1888.66,-153.8 1885.66,-149.8 1829.34,-149.8 1829.34,-113.8 1912.66,-113.8 1912.66,-149.8"/>
<text text-anchor="middle" x="1871" y="-127.6" font-family="Times,serif" font-size="14.00">AppModule</text>
</g>
<!-- AppComponent&#45;&gt;AppModule -->
<g id="edge1" class="edge">
<title>AppComponent&#45;&gt;AppModule</title>
<path fill="none" stroke="black" d="M3291,-85.05C3291,-107.82 3291,-143.8 3291,-143.8 3291,-143.8 1922.73,-143.8 1922.73,-143.8"/>
<polygon fill="black" stroke="black" points="1922.73,-140.3 1912.73,-143.8 1922.73,-147.3 1922.73,-140.3"/>
</g>
<!-- BookFilterPipe -->
<g id="node2" class="node">
<title>BookFilterPipe</title>
<polygon fill="#ffffb3" stroke="black" points="3219.56,-84.8 3118.44,-84.8 3118.44,-48.8 3219.56,-48.8 3219.56,-84.8"/>
<text text-anchor="middle" x="3169" y="-62.6" font-family="Times,serif" font-size="14.00">BookFilterPipe</text>
</g>
<!-- BookFilterPipe&#45;&gt;AppModule -->
<g id="edge2" class="edge">
<title>BookFilterPipe&#45;&gt;AppModule</title>
<path fill="none" stroke="black" d="M3169,-85.09C3169,-107.01 3169,-140.8 3169,-140.8 3169,-140.8 1922.72,-140.8 1922.72,-140.8"/>
<polygon fill="black" stroke="black" points="1922.72,-137.3 1912.72,-140.8 1922.72,-144.3 1922.72,-137.3"/>
</g>
<!-- BookmarksComponent -->
<g id="node3" class="node">
<title>BookmarksComponent</title>
<polygon fill="#ffffb3" stroke="black" points="3099.88,-84.8 2954.12,-84.8 2954.12,-48.8 3099.88,-48.8 3099.88,-84.8"/>
<text text-anchor="middle" x="3027" y="-62.6" font-family="Times,serif" font-size="14.00">BookmarksComponent</text>
</g>
<!-- BookmarksComponent&#45;&gt;AppModule -->
<g id="edge3" class="edge">
<title>BookmarksComponent&#45;&gt;AppModule</title>
<path fill="none" stroke="black" d="M3027,-85.08C3027,-106.12 3027,-137.8 3027,-137.8 3027,-137.8 1922.83,-137.8 1922.83,-137.8"/>
<polygon fill="black" stroke="black" points="1922.83,-134.3 1912.83,-137.8 1922.83,-141.3 1922.83,-134.3"/>
</g>
<!-- ChallengeComponent -->
<g id="node4" class="node">
<title>ChallengeComponent</title>
<polygon fill="#ffffb3" stroke="black" points="2936.09,-84.8 2797.91,-84.8 2797.91,-48.8 2936.09,-48.8 2936.09,-84.8"/>
<text text-anchor="middle" x="2867" y="-62.6" font-family="Times,serif" font-size="14.00">ChallengeComponent</text>
</g>
<!-- ChallengeComponent&#45;&gt;AppModule -->
<g id="edge4" class="edge">
<title>ChallengeComponent&#45;&gt;AppModule</title>
<path fill="none" stroke="black" d="M2867,-85.02C2867,-105.17 2867,-134.8 2867,-134.8 2867,-134.8 1922.84,-134.8 1922.84,-134.8"/>
<polygon fill="black" stroke="black" points="1922.84,-131.3 1912.84,-134.8 1922.84,-138.3 1922.84,-131.3"/>
</g>
<!-- EditProfileComponent -->
<g id="node5" class="node">
<title>EditProfileComponent</title>
<polygon fill="#ffffb3" stroke="black" points="2780.27,-84.8 2637.73,-84.8 2637.73,-48.8 2780.27,-48.8 2780.27,-84.8"/>
<text text-anchor="middle" x="2709" y="-62.6" font-family="Times,serif" font-size="14.00">EditProfileComponent</text>
</g>
<!-- EditProfileComponent&#45;&gt;AppModule -->
<g id="edge5" class="edge">
<title>EditProfileComponent&#45;&gt;AppModule</title>
<path fill="none" stroke="black" d="M2709,-84.91C2709,-104.14 2709,-131.8 2709,-131.8 2709,-131.8 1922.84,-131.8 1922.84,-131.8"/>
<polygon fill="black" stroke="black" points="1922.84,-128.3 1912.84,-131.8 1922.84,-135.3 1922.84,-128.3"/>
</g>
<!-- FilterFriendsPipe -->
<g id="node6" class="node">
<title>FilterFriendsPipe</title>
<polygon fill="#ffffb3" stroke="black" points="2619.72,-84.8 2506.28,-84.8 2506.28,-48.8 2619.72,-48.8 2619.72,-84.8"/>
<text text-anchor="middle" x="2563" y="-62.6" font-family="Times,serif" font-size="14.00">FilterFriendsPipe</text>
</g>
<!-- FilterFriendsPipe&#45;&gt;AppModule -->
<g id="edge6" class="edge">
<title>FilterFriendsPipe&#45;&gt;AppModule</title>
<path fill="none" stroke="black" d="M2563,-85.07C2563,-103.36 2563,-128.8 2563,-128.8 2563,-128.8 1922.73,-128.8 1922.73,-128.8"/>
<polygon fill="black" stroke="black" points="1922.73,-125.3 1912.73,-128.8 1922.73,-132.3 1922.73,-125.3"/>
</g>
<!-- FilterPipe -->
<g id="node7" class="node">
<title>FilterPipe</title>
<polygon fill="#ffffb3" stroke="black" points="2488.72,-84.8 2417.28,-84.8 2417.28,-48.8 2488.72,-48.8 2488.72,-84.8"/>
<text text-anchor="middle" x="2453" y="-62.6" font-family="Times,serif" font-size="14.00">FilterPipe</text>
</g>
<!-- FilterPipe&#45;&gt;AppModule -->
<g id="edge7" class="edge">
<title>FilterPipe&#45;&gt;AppModule</title>
<path fill="none" stroke="black" d="M2453,-84.82C2453,-102.17 2453,-125.8 2453,-125.8 2453,-125.8 1922.86,-125.8 1922.86,-125.8"/>
<polygon fill="black" stroke="black" points="1922.86,-122.3 1912.86,-125.8 1922.86,-129.3 1922.86,-122.3"/>
</g>
<!-- FriendInfoComponent -->
<g id="node8" class="node">
<title>FriendInfoComponent</title>
<polygon fill="#ffffb3" stroke="black" points="2399.71,-84.8 2258.29,-84.8 2258.29,-48.8 2399.71,-48.8 2399.71,-84.8"/>
<text text-anchor="middle" x="2329" y="-62.6" font-family="Times,serif" font-size="14.00">FriendInfoComponent</text>
</g>
<!-- FriendInfoComponent&#45;&gt;AppModule -->
<g id="edge8" class="edge">
<title>FriendInfoComponent&#45;&gt;AppModule</title>
<path fill="none" stroke="black" d="M2329,-84.83C2329,-101.2 2329,-122.8 2329,-122.8 2329,-122.8 1922.86,-122.8 1922.86,-122.8"/>
<polygon fill="black" stroke="black" points="1922.86,-119.3 1912.86,-122.8 1922.86,-126.3 1922.86,-119.3"/>
</g>
<!-- FriendSelectComponent -->
<g id="node9" class="node">
<title>FriendSelectComponent</title>
<polygon fill="#ffffb3" stroke="black" points="2240.09,-84.8 2087.91,-84.8 2087.91,-48.8 2240.09,-48.8 2240.09,-84.8"/>
<text text-anchor="middle" x="2164" y="-62.6" font-family="Times,serif" font-size="14.00">FriendSelectComponent</text>
</g>
<!-- FriendSelectComponent&#45;&gt;AppModule -->
<g id="edge9" class="edge">
<title>FriendSelectComponent&#45;&gt;AppModule</title>
<path fill="none" stroke="black" d="M2164,-85.04C2164,-100.37 2164,-119.8 2164,-119.8 2164,-119.8 1922.67,-119.8 1922.67,-119.8"/>
<polygon fill="black" stroke="black" points="1922.67,-116.3 1912.67,-119.8 1922.67,-123.3 1922.67,-116.3"/>
</g>
<!-- FriendsComponent -->
<g id="node10" class="node">
<title>FriendsComponent</title>
<polygon fill="#ffffb3" stroke="black" points="2069.83,-84.8 1946.17,-84.8 1946.17,-48.8 2069.83,-48.8 2069.83,-84.8"/>
<text text-anchor="middle" x="2008" y="-62.6" font-family="Times,serif" font-size="14.00">FriendsComponent</text>
</g>
<!-- FriendsComponent&#45;&gt;AppModule -->
<g id="edge10" class="edge">
<title>FriendsComponent&#45;&gt;AppModule</title>
<path fill="none" stroke="black" d="M2008,-84.85C2008,-99.17 2008,-116.8 2008,-116.8 2008,-116.8 1922.85,-116.8 1922.85,-116.8"/>
<polygon fill="black" stroke="black" points="1922.85,-113.3 1912.85,-116.8 1922.85,-120.3 1922.85,-113.3"/>
</g>
<!-- HomeComponent -->
<g id="node11" class="node">
<title>HomeComponent</title>
<polygon fill="#ffffb3" stroke="black" points="1928.55,-84.8 1813.45,-84.8 1813.45,-48.8 1928.55,-48.8 1928.55,-84.8"/>
<text text-anchor="middle" x="1871" y="-62.6" font-family="Times,serif" font-size="14.00">HomeComponent</text>
</g>
<!-- HomeComponent&#45;&gt;AppModule -->
<g id="edge11" class="edge">
<title>HomeComponent&#45;&gt;AppModule</title>
<path fill="none" stroke="black" d="M1871,-84.91C1871,-84.91 1871,-103.79 1871,-103.79"/>
<polygon fill="black" stroke="black" points="1867.5,-103.79 1871,-113.79 1874.5,-103.79 1867.5,-103.79"/>
</g>
<!-- LeaderboardComponent -->
<g id="node12" class="node">
<title>LeaderboardComponent</title>
<polygon fill="#ffffb3" stroke="black" points="1795.06,-84.8 1642.94,-84.8 1642.94,-48.8 1795.06,-48.8 1795.06,-84.8"/>
<text text-anchor="middle" x="1719" y="-62.6" font-family="Times,serif" font-size="14.00">LeaderboardComponent</text>
</g>
<!-- LeaderboardComponent&#45;&gt;AppModule -->
<g id="edge12" class="edge">
<title>LeaderboardComponent&#45;&gt;AppModule</title>
<path fill="none" stroke="black" d="M1719,-84.85C1719,-99.17 1719,-116.8 1719,-116.8 1719,-116.8 1819.06,-116.8 1819.06,-116.8"/>
<polygon fill="black" stroke="black" points="1819.06,-120.3 1829.06,-116.8 1819.06,-113.3 1819.06,-120.3"/>
</g>
<!-- LoginComponent -->
<g id="node13" class="node">
<title>LoginComponent</title>
<polygon fill="#ffffb3" stroke="black" points="1625.27,-84.8 1510.73,-84.8 1510.73,-48.8 1625.27,-48.8 1625.27,-84.8"/>
<text text-anchor="middle" x="1568" y="-62.6" font-family="Times,serif" font-size="14.00">LoginComponent</text>
</g>
<!-- LoginComponent&#45;&gt;AppModule -->
<g id="edge13" class="edge">
<title>LoginComponent&#45;&gt;AppModule</title>
<path fill="none" stroke="black" d="M1568,-85.04C1568,-100.37 1568,-119.8 1568,-119.8 1568,-119.8 1819.19,-119.8 1819.19,-119.8"/>
<polygon fill="black" stroke="black" points="1819.19,-123.3 1829.19,-119.8 1819.19,-116.3 1819.19,-123.3"/>
</g>
<!-- MasterAnswerComponent -->
<g id="node14" class="node">
<title>MasterAnswerComponent</title>
<polygon fill="#ffffb3" stroke="black" points="1492.75,-84.8 1329.25,-84.8 1329.25,-48.8 1492.75,-48.8 1492.75,-84.8"/>
<text text-anchor="middle" x="1411" y="-62.6" font-family="Times,serif" font-size="14.00">MasterAnswerComponent</text>
</g>
<!-- MasterAnswerComponent&#45;&gt;AppModule -->
<g id="edge14" class="edge">
<title>MasterAnswerComponent&#45;&gt;AppModule</title>
<path fill="none" stroke="black" d="M1411,-84.83C1411,-101.2 1411,-122.8 1411,-122.8 1411,-122.8 1818.96,-122.8 1818.96,-122.8"/>
<polygon fill="black" stroke="black" points="1818.96,-126.3 1828.96,-122.8 1818.96,-119.3 1818.96,-126.3"/>
</g>
<!-- QuizAnswerComponent -->
<g id="node15" class="node">
<title>QuizAnswerComponent</title>
<polygon fill="#ffffb3" stroke="black" points="1311.09,-84.8 1158.91,-84.8 1158.91,-48.8 1311.09,-48.8 1311.09,-84.8"/>
<text text-anchor="middle" x="1235" y="-62.6" font-family="Times,serif" font-size="14.00">QuizAnswerComponent</text>
</g>
<!-- QuizAnswerComponent&#45;&gt;AppModule -->
<g id="edge15" class="edge">
<title>QuizAnswerComponent&#45;&gt;AppModule</title>
<path fill="none" stroke="black" d="M1235,-84.82C1235,-102.17 1235,-125.8 1235,-125.8 1235,-125.8 1819.27,-125.8 1819.27,-125.8"/>
<polygon fill="black" stroke="black" points="1819.27,-129.3 1829.27,-125.8 1819.27,-122.3 1819.27,-129.3"/>
</g>
<!-- QuizCreateComponent -->
<g id="node16" class="node">
<title>QuizCreateComponent</title>
<polygon fill="#ffffb3" stroke="black" points="1140.58,-84.8 995.42,-84.8 995.42,-48.8 1140.58,-48.8 1140.58,-84.8"/>
<text text-anchor="middle" x="1068" y="-62.6" font-family="Times,serif" font-size="14.00">QuizCreateComponent</text>
</g>
<!-- QuizCreateComponent&#45;&gt;AppModule -->
<g id="edge16" class="edge">
<title>QuizCreateComponent&#45;&gt;AppModule</title>
<path fill="none" stroke="black" d="M1068,-85.07C1068,-103.36 1068,-128.8 1068,-128.8 1068,-128.8 1819.24,-128.8 1819.24,-128.8"/>
<polygon fill="black" stroke="black" points="1819.24,-132.3 1829.24,-128.8 1819.24,-125.3 1819.24,-132.3"/>
</g>
<!-- QuizImageComponent -->
<g id="node17" class="node">
<title>QuizImageComponent</title>
<polygon fill="#ffffb3" stroke="black" points="977.53,-84.8 834.47,-84.8 834.47,-48.8 977.53,-48.8 977.53,-84.8"/>
<text text-anchor="middle" x="906" y="-62.6" font-family="Times,serif" font-size="14.00">QuizImageComponent</text>
</g>
<!-- QuizImageComponent&#45;&gt;AppModule -->
<g id="edge17" class="edge">
<title>QuizImageComponent&#45;&gt;AppModule</title>
<path fill="none" stroke="black" d="M906,-84.91C906,-104.14 906,-131.8 906,-131.8 906,-131.8 1819.23,-131.8 1819.23,-131.8"/>
<polygon fill="black" stroke="black" points="1819.23,-135.3 1829.23,-131.8 1819.23,-128.3 1819.23,-135.3"/>
</g>
<!-- QuizInfoComponent -->
<g id="node18" class="node">
<title>QuizInfoComponent</title>
<polygon fill="#ffffb3" stroke="black" points="815.87,-84.8 684.13,-84.8 684.13,-48.8 815.87,-48.8 815.87,-84.8"/>
<text text-anchor="middle" x="750" y="-62.6" font-family="Times,serif" font-size="14.00">QuizInfoComponent</text>
</g>
<!-- QuizInfoComponent&#45;&gt;AppModule -->
<g id="edge18" class="edge">
<title>QuizInfoComponent&#45;&gt;AppModule</title>
<path fill="none" stroke="black" d="M750,-85.02C750,-105.17 750,-134.8 750,-134.8 750,-134.8 1819.1,-134.8 1819.1,-134.8"/>
<polygon fill="black" stroke="black" points="1819.1,-138.3 1829.1,-134.8 1819.1,-131.3 1819.1,-138.3"/>
</g>
<!-- QuizResultComponent -->
<g id="node19" class="node">
<title>QuizResultComponent</title>
<polygon fill="#ffffb3" stroke="black" points="666.32,-84.8 521.68,-84.8 521.68,-48.8 666.32,-48.8 666.32,-84.8"/>
<text text-anchor="middle" x="594" y="-62.6" font-family="Times,serif" font-size="14.00">QuizResultComponent</text>
</g>
<!-- QuizResultComponent&#45;&gt;AppModule -->
<g id="edge19" class="edge">
<title>QuizResultComponent&#45;&gt;AppModule</title>
<path fill="none" stroke="black" d="M594,-85.08C594,-106.12 594,-137.8 594,-137.8 594,-137.8 1819.24,-137.8 1819.24,-137.8"/>
<polygon fill="black" stroke="black" points="1819.24,-141.3 1829.24,-137.8 1819.24,-134.3 1819.24,-141.3"/>
</g>
<!-- QuizSearchComponent -->
<g id="node20" class="node">
<title>QuizSearchComponent</title>
<polygon fill="#ffffb3" stroke="black" points="504.14,-84.8 357.86,-84.8 357.86,-48.8 504.14,-48.8 504.14,-84.8"/>
<text text-anchor="middle" x="431" y="-62.6" font-family="Times,serif" font-size="14.00">QuizSearchComponent</text>
</g>
<!-- QuizSearchComponent&#45;&gt;AppModule -->
<g id="edge20" class="edge">
<title>QuizSearchComponent&#45;&gt;AppModule</title>
<path fill="none" stroke="black" d="M431,-85.09C431,-107.01 431,-140.8 431,-140.8 431,-140.8 1819.07,-140.8 1819.07,-140.8"/>
<polygon fill="black" stroke="black" points="1819.07,-144.3 1829.07,-140.8 1819.07,-137.3 1819.07,-144.3"/>
</g>
<!-- QuizTypeinComponent -->
<g id="node21" class="node">
<title>QuizTypeinComponent</title>
<polygon fill="#ffffb3" stroke="black" points="340.2,-84.8 191.8,-84.8 191.8,-48.8 340.2,-48.8 340.2,-84.8"/>
<text text-anchor="middle" x="266" y="-62.6" font-family="Times,serif" font-size="14.00">QuizTypeinComponent</text>
</g>
<!-- QuizTypeinComponent&#45;&gt;AppModule -->
<g id="edge21" class="edge">
<title>QuizTypeinComponent&#45;&gt;AppModule</title>
<path fill="none" stroke="black" d="M266,-85.05C266,-107.82 266,-143.8 266,-143.8 266,-143.8 1819.3,-143.8 1819.3,-143.8"/>
<polygon fill="black" stroke="black" points="1819.3,-147.3 1829.3,-143.8 1819.3,-140.3 1819.3,-147.3"/>
</g>
<!-- RegistrationComponent -->
<g id="node22" class="node">
<title>RegistrationComponent</title>
<polygon fill="#ffffb3" stroke="black" points="173.77,-84.8 24.23,-84.8 24.23,-48.8 173.77,-48.8 173.77,-84.8"/>
<text text-anchor="middle" x="99" y="-62.6" font-family="Times,serif" font-size="14.00">RegistrationComponent</text>
</g>
<!-- RegistrationComponent&#45;&gt;AppModule -->
<g id="edge22" class="edge">
<title>RegistrationComponent&#45;&gt;AppModule</title>
<path fill="none" stroke="black" d="M99,-84.95C99,-108.56 99,-146.8 99,-146.8 99,-146.8 1818.95,-146.8 1818.95,-146.8"/>
<polygon fill="black" stroke="black" points="1818.95,-150.3 1828.95,-146.8 1818.95,-143.3 1818.95,-150.3"/>
</g>
<!-- AppComponent  -->
<g id="node25" class="node">
<title>AppComponent </title>
<polygon fill="#80b1d3" stroke="black" points="1925.44,-214.8 1816.56,-214.8 1816.56,-178.8 1925.44,-178.8 1925.44,-214.8"/>
<text text-anchor="middle" x="1871" y="-192.6" font-family="Times,serif" font-size="14.00">AppComponent </text>
</g>
<!-- AppModule&#45;&gt;AppComponent  -->
<g id="edge24" class="edge">
<title>AppModule&#45;&gt;AppComponent </title>
<path fill="none" stroke="black" stroke-dasharray="1,5" d="M1871,-149.91C1871,-149.91 1871,-168.79 1871,-168.79"/>
<polygon fill="black" stroke="black" points="1867.5,-168.79 1871,-178.79 1874.5,-168.79 1867.5,-168.79"/>
</g>
<!-- AppRoutingModule -->
<g id="node24" class="node">
<title>AppRoutingModule</title>
<polygon fill="#8dd3c7" stroke="black" points="3496.28,-84.8 3493.28,-88.8 3472.28,-88.8 3469.28,-84.8 3367.72,-84.8 3367.72,-48.8 3496.28,-48.8 3496.28,-84.8"/>
<text text-anchor="middle" x="3432" y="-62.6" font-family="Times,serif" font-size="14.00">AppRoutingModule</text>
</g>
<!-- AppRoutingModule&#45;&gt;AppModule -->
<g id="edge23" class="edge">
<title>AppRoutingModule&#45;&gt;AppModule</title>
<path fill="none" stroke="black" d="M3432,-84.95C3432,-108.56 3432,-146.8 3432,-146.8 3432,-146.8 1922.75,-146.8 1922.75,-146.8"/>
<polygon fill="black" stroke="black" points="1922.75,-143.3 1912.75,-146.8 1922.75,-150.3 1922.75,-143.3"/>
</g>
</g>
</svg>
