<?xml version="1.0" encoding="UTF-8" standalone="no"?>
<!DOCTYPE svg PUBLIC "-//W3C//DTD SVG 1.1//EN"
 "http://www.w3.org/Graphics/SVG/1.1/DTD/svg11.dtd">
<!-- Generated by graphviz version 5.0.0 (20220707.1540)
 -->
<!-- Title: dependencies Pages: 1 -->
<svg width="2110pt" height="247pt"
 viewBox="0.00 0.00 2110.00 246.80" xmlns="http://www.w3.org/2000/svg" xmlns:xlink="http://www.w3.org/1999/xlink">
<g id="graph0" class="graph" transform="scale(1 1) rotate(0) translate(4 242.8)">
<title>dependencies</title>
<polygon fill="white" stroke="transparent" points="-4,4 -4,-242.8 2106,-242.8 2106,4 -4,4"/>
<text text-anchor="middle" x="1051" y="-8.2" font-family="sans-serif" font-size="14.00">dependencies</text>
<g id="clust1" class="cluster">
<title>cluster_AppModule</title>
<polygon fill="none" stroke="black" stroke-dasharray="1,5" points="8,-32.8 8,-230.8 2094,-230.8 2094,-32.8 8,-32.8"/>
</g>
<g id="clust16" class="cluster">
<title>cluster_AppModule_imports</title>
<polygon fill="none" stroke="black" points="1942,-40.8 1942,-92.8 2086,-92.8 2086,-40.8 1942,-40.8"/>
</g>
<g id="clust18" class="cluster">
<title>cluster_AppModule_bootstrap</title>
<polygon fill="none" stroke="black" points="1082,-170.8 1082,-222.8 1206,-222.8 1206,-170.8 1082,-170.8"/>
</g>
<g id="clust2" class="cluster">
<title>cluster_AppModule_declarations</title>
<polygon fill="none" stroke="black" points="16,-40.8 16,-92.8 1934,-92.8 1934,-40.8 16,-40.8"/>
</g>
<!-- AppComponent -->
<g id="node1" class="node">
<title>AppComponent</title>
<polygon fill="#ffffb3" stroke="black" points="1925.94,-84.8 1820.06,-84.8 1820.06,-48.8 1925.94,-48.8 1925.94,-84.8"/>
<text text-anchor="middle" x="1873" y="-62.6" font-family="Times,serif" font-size="14.00">AppComponent</text>
</g>
<!-- AppModule -->
<g id="node14" class="node">
<title>AppModule</title>
<polygon fill="#8dd3c7" stroke="black" points="1185.66,-149.8 1182.66,-153.8 1161.66,-153.8 1158.66,-149.8 1102.34,-149.8 1102.34,-113.8 1185.66,-113.8 1185.66,-149.8"/>
<text text-anchor="middle" x="1144" y="-127.6" font-family="Times,serif" font-size="14.00">AppModule</text>
</g>
<!-- AppComponent&#45;&gt;AppModule -->
<g id="edge1" class="edge">
<title>AppComponent&#45;&gt;AppModule</title>
<path fill="none" stroke="black" d="M1873,-84.84C1873,-106.46 1873,-139.8 1873,-139.8 1873,-139.8 1195.81,-139.8 1195.81,-139.8"/>
<polygon fill="black" stroke="black" points="1195.81,-136.3 1185.81,-139.8 1195.81,-143.3 1195.81,-136.3"/>
</g>
<!-- BookFilterPipe -->
<g id="node2" class="node">
<title>BookFilterPipe</title>
<polygon fill="#ffffb3" stroke="black" points="1801.56,-84.8 1700.44,-84.8 1700.44,-48.8 1801.56,-48.8 1801.56,-84.8"/>
<text text-anchor="middle" x="1751" y="-62.6" font-family="Times,serif" font-size="14.00">BookFilterPipe</text>
</g>
<!-- BookFilterPipe&#45;&gt;AppModule -->
<g id="edge2" class="edge">
<title>BookFilterPipe&#45;&gt;AppModule</title>
<path fill="none" stroke="black" d="M1751,-85.02C1751,-105.17 1751,-134.8 1751,-134.8 1751,-134.8 1195.72,-134.8 1195.72,-134.8"/>
<polygon fill="black" stroke="black" points="1195.72,-131.3 1185.72,-134.8 1195.72,-138.3 1195.72,-131.3"/>
</g>
<!-- BookmarksComponent -->
<g id="node3" class="node">
<title>BookmarksComponent</title>
<polygon fill="#ffffb3" stroke="black" points="1681.88,-84.8 1536.12,-84.8 1536.12,-48.8 1681.88,-48.8 1681.88,-84.8"/>
<text text-anchor="middle" x="1609" y="-62.6" font-family="Times,serif" font-size="14.00">BookmarksComponent</text>
</g>
<!-- BookmarksComponent&#45;&gt;AppModule -->
<g id="edge3" class="edge">
<title>BookmarksComponent&#45;&gt;AppModule</title>
<path fill="none" stroke="black" d="M1609,-85.02C1609,-103.63 1609,-129.8 1609,-129.8 1609,-129.8 1195.67,-129.8 1195.67,-129.8"/>
<polygon fill="black" stroke="black" points="1195.67,-126.3 1185.67,-129.8 1195.67,-133.3 1195.67,-126.3"/>
</g>
<!-- EditProfileComponent -->
<g id="node4" class="node">
<title>EditProfileComponent</title>
<polygon fill="#ffffb3" stroke="black" points="1518.27,-84.8 1375.73,-84.8 1375.73,-48.8 1518.27,-48.8 1518.27,-84.8"/>
<text text-anchor="middle" x="1447" y="-62.6" font-family="Times,serif" font-size="14.00">EditProfileComponent</text>
</g>
<!-- EditProfileComponent&#45;&gt;AppModule -->
<g id="edge4" class="edge">
<title>EditProfileComponent&#45;&gt;AppModule</title>
<path fill="none" stroke="black" d="M1447,-84.83C1447,-101.86 1447,-124.8 1447,-124.8 1447,-124.8 1195.81,-124.8 1195.81,-124.8"/>
<polygon fill="black" stroke="black" points="1195.81,-121.3 1185.81,-124.8 1195.81,-128.3 1195.81,-121.3"/>
</g>
<!-- FilterPipe -->
<g id="node5" class="node">
<title>FilterPipe</title>
<polygon fill="#ffffb3" stroke="black" points="1357.72,-84.8 1286.28,-84.8 1286.28,-48.8 1357.72,-48.8 1357.72,-84.8"/>
<text text-anchor="middle" x="1322" y="-62.6" font-family="Times,serif" font-size="14.00">FilterPipe</text>
</g>
<!-- FilterPipe&#45;&gt;AppModule -->
<g id="edge5" class="edge">
<title>FilterPipe&#45;&gt;AppModule</title>
<path fill="none" stroke="black" d="M1322,-85.04C1322,-100.37 1322,-119.8 1322,-119.8 1322,-119.8 1195.73,-119.8 1195.73,-119.8"/>
<polygon fill="black" stroke="black" points="1195.73,-116.3 1185.73,-119.8 1195.73,-123.3 1195.73,-116.3"/>
</g>
<!-- HomeComponent -->
<g id="node6" class="node">
<title>HomeComponent</title>
<polygon fill="#ffffb3" stroke="black" points="1268.55,-84.8 1153.45,-84.8 1153.45,-48.8 1268.55,-48.8 1268.55,-84.8"/>
<text text-anchor="middle" x="1211" y="-62.6" font-family="Times,serif" font-size="14.00">HomeComponent</text>
</g>
<!-- HomeComponent&#45;&gt;AppModule -->
<g id="edge6" class="edge">
<title>HomeComponent&#45;&gt;AppModule</title>
<path fill="none" stroke="black" d="M1169.53,-84.91C1169.53,-84.91 1169.53,-103.79 1169.53,-103.79"/>
<polygon fill="black" stroke="black" points="1166.03,-103.79 1169.53,-113.79 1173.03,-103.79 1166.03,-103.79"/>
</g>
<!-- LoginComponent -->
<g id="node7" class="node">
<title>LoginComponent</title>
<polygon fill="#ffffb3" stroke="black" points="1135.27,-84.8 1020.73,-84.8 1020.73,-48.8 1135.27,-48.8 1135.27,-84.8"/>
<text text-anchor="middle" x="1078" y="-62.6" font-family="Times,serif" font-size="14.00">LoginComponent</text>
</g>
<!-- LoginComponent&#45;&gt;AppModule -->
<g id="edge7" class="edge">
<title>LoginComponent&#45;&gt;AppModule</title>
<path fill="none" stroke="black" d="M1118.78,-84.91C1118.78,-84.91 1118.78,-103.79 1118.78,-103.79"/>
<polygon fill="black" stroke="black" points="1115.28,-103.79 1118.78,-113.79 1122.28,-103.79 1115.28,-103.79"/>
</g>
<!-- MasterAnswerComponent -->
<g id="node8" class="node">
<title>MasterAnswerComponent</title>
<polygon fill="#ffffb3" stroke="black" points="1002.75,-84.8 839.25,-84.8 839.25,-48.8 1002.75,-48.8 1002.75,-84.8"/>
<text text-anchor="middle" x="921" y="-62.6" font-family="Times,serif" font-size="14.00">MasterAnswerComponent</text>
</g>
<!-- MasterAnswerComponent&#45;&gt;AppModule -->
<g id="edge8" class="edge">
<title>MasterAnswerComponent&#45;&gt;AppModule</title>
<path fill="none" stroke="black" d="M921,-85.04C921,-100.37 921,-119.8 921,-119.8 921,-119.8 1092.32,-119.8 1092.32,-119.8"/>
<polygon fill="black" stroke="black" points="1092.32,-123.3 1102.32,-119.8 1092.32,-116.3 1092.32,-123.3"/>
</g>
<!-- QuizAnswerComponent -->
<g id="node9" class="node">
<title>QuizAnswerComponent</title>
<polygon fill="#ffffb3" stroke="black" points="821.09,-84.8 668.91,-84.8 668.91,-48.8 821.09,-48.8 821.09,-84.8"/>
<text text-anchor="middle" x="745" y="-62.6" font-family="Times,serif" font-size="14.00">QuizAnswerComponent</text>
</g>
<!-- QuizAnswerComponent&#45;&gt;AppModule -->
<g id="edge9" class="edge">
<title>QuizAnswerComponent&#45;&gt;AppModule</title>
<path fill="none" stroke="black" d="M745,-84.83C745,-101.86 745,-124.8 745,-124.8 745,-124.8 1092.05,-124.8 1092.05,-124.8"/>
<polygon fill="black" stroke="black" points="1092.05,-128.3 1102.05,-124.8 1092.05,-121.3 1092.05,-128.3"/>
</g>
<!-- QuizCreateComponent -->
<g id="node10" class="node">
<title>QuizCreateComponent</title>
<polygon fill="#ffffb3" stroke="black" points="650.58,-84.8 505.42,-84.8 505.42,-48.8 650.58,-48.8 650.58,-84.8"/>
<text text-anchor="middle" x="578" y="-62.6" font-family="Times,serif" font-size="14.00">QuizCreateComponent</text>
</g>
<!-- QuizCreateComponent&#45;&gt;AppModule -->
<g id="edge10" class="edge">
<title>QuizCreateComponent&#45;&gt;AppModule</title>
<path fill="none" stroke="black" d="M578,-85.02C578,-103.63 578,-129.8 578,-129.8 578,-129.8 1091.92,-129.8 1091.92,-129.8"/>
<polygon fill="black" stroke="black" points="1091.92,-133.3 1101.92,-129.8 1091.92,-126.3 1091.92,-133.3"/>
</g>
<!-- QuizInfoComponent -->
<g id="node11" class="node">
<title>QuizInfoComponent</title>
<polygon fill="#ffffb3" stroke="black" points="487.87,-84.8 356.13,-84.8 356.13,-48.8 487.87,-48.8 487.87,-84.8"/>
<text text-anchor="middle" x="422" y="-62.6" font-family="Times,serif" font-size="14.00">QuizInfoComponent</text>
</g>
<!-- QuizInfoComponent&#45;&gt;AppModule -->
<g id="edge11" class="edge">
<title>QuizInfoComponent&#45;&gt;AppModule</title>
<path fill="none" stroke="black" d="M422,-85.02C422,-105.17 422,-134.8 422,-134.8 422,-134.8 1092.33,-134.8 1092.33,-134.8"/>
<polygon fill="black" stroke="black" points="1092.33,-138.3 1102.33,-134.8 1092.33,-131.3 1092.33,-138.3"/>
</g>
<!-- QuizSearchComponent -->
<g id="node12" class="node">
<title>QuizSearchComponent</title>
<polygon fill="#ffffb3" stroke="black" points="338.14,-84.8 191.86,-84.8 191.86,-48.8 338.14,-48.8 338.14,-84.8"/>
<text text-anchor="middle" x="265" y="-62.6" font-family="Times,serif" font-size="14.00">QuizSearchComponent</text>
</g>
<!-- QuizSearchComponent&#45;&gt;AppModule -->
<g id="edge12" class="edge">
<title>QuizSearchComponent&#45;&gt;AppModule</title>
<path fill="none" stroke="black" d="M265,-84.84C265,-106.46 265,-139.8 265,-139.8 265,-139.8 1092.2,-139.8 1092.2,-139.8"/>
<polygon fill="black" stroke="black" points="1092.2,-143.3 1102.2,-139.8 1092.2,-136.3 1092.2,-143.3"/>
</g>
<!-- RegistrationComponent -->
<g id="node13" class="node">
<title>RegistrationComponent</title>
<polygon fill="#ffffb3" stroke="black" points="173.77,-84.8 24.23,-84.8 24.23,-48.8 173.77,-48.8 173.77,-84.8"/>
<text text-anchor="middle" x="99" y="-62.6" font-family="Times,serif" font-size="14.00">RegistrationComponent</text>
</g>
<!-- RegistrationComponent&#45;&gt;AppModule -->
<g id="edge13" class="edge">
<title>RegistrationComponent&#45;&gt;AppModule</title>
<path fill="none" stroke="black" d="M99,-84.89C99,-107.93 99,-144.8 99,-144.8 99,-144.8 1092.07,-144.8 1092.07,-144.8"/>
<polygon fill="black" stroke="black" points="1092.07,-148.3 1102.07,-144.8 1092.07,-141.3 1092.07,-148.3"/>
</g>
<!-- AppComponent  -->
<g id="node16" class="node">
<title>AppComponent </title>
<polygon fill="#80b1d3" stroke="black" points="1198.44,-214.8 1089.56,-214.8 1089.56,-178.8 1198.44,-178.8 1198.44,-214.8"/>
<text text-anchor="middle" x="1144" y="-192.6" font-family="Times,serif" font-size="14.00">AppComponent </text>
</g>
<!-- AppModule&#45;&gt;AppComponent  -->
<g id="edge15" class="edge">
<title>AppModule&#45;&gt;AppComponent </title>
<path fill="none" stroke="black" stroke-dasharray="1,5" d="M1144,-149.91C1144,-149.91 1144,-168.79 1144,-168.79"/>
<polygon fill="black" stroke="black" points="1140.5,-168.79 1144,-178.79 1147.5,-168.79 1140.5,-168.79"/>
</g>
<!-- AppRoutingModule -->
<g id="node15" class="node">
<title>AppRoutingModule</title>
<polygon fill="#8dd3c7" stroke="black" points="2078.28,-84.8 2075.28,-88.8 2054.28,-88.8 2051.28,-84.8 1949.72,-84.8 1949.72,-48.8 2078.28,-48.8 2078.28,-84.8"/>
<text text-anchor="middle" x="2014" y="-62.6" font-family="Times,serif" font-size="14.00">AppRoutingModule</text>
</g>
<!-- AppRoutingModule&#45;&gt;AppModule -->
<g id="edge14" class="edge">
<title>AppRoutingModule&#45;&gt;AppModule</title>
<path fill="none" stroke="black" d="M2014,-84.89C2014,-107.93 2014,-144.8 2014,-144.8 2014,-144.8 1195.67,-144.8 1195.67,-144.8"/>
<polygon fill="black" stroke="black" points="1195.67,-141.3 1185.67,-144.8 1195.67,-148.3 1195.67,-141.3"/>
</g>
</g>
</svg>
