<?xml version="1.0" encoding="UTF-8" standalone="no"?>
<!DOCTYPE svg PUBLIC "-//W3C//DTD SVG 1.1//EN"
 "http://www.w3.org/Graphics/SVG/1.1/DTD/svg11.dtd">
<!-- Generated by graphviz version 5.0.0 (20220707.1540)
 -->
<!-- Title: dependencies Pages: 1 -->
<svg width="945pt" height="247pt"
 viewBox="0.00 0.00 945.00 246.80" xmlns="http://www.w3.org/2000/svg" xmlns:xlink="http://www.w3.org/1999/xlink">
<g id="graph0" class="graph" transform="scale(1 1) rotate(0) translate(4 242.8)">
<title>dependencies</title>
<polygon fill="white" stroke="transparent" points="-4,4 -4,-242.8 941,-242.8 941,4 -4,4"/>
<text text-anchor="middle" x="468.5" y="-8.2" font-family="sans-serif" font-size="14.00">dependencies</text>
<g id="clust1" class="cluster">
<title>cluster_AppModule</title>
<polygon fill="none" stroke="black" stroke-dasharray="1,5" points="8,-32.8 8,-230.8 929,-230.8 929,-32.8 8,-32.8"/>
</g>
<g id="clust8" class="cluster">
<title>cluster_AppModule_imports</title>
<polygon fill="none" stroke="black" points="777,-40.8 777,-92.8 921,-92.8 921,-40.8 777,-40.8"/>
</g>
<g id="clust2" class="cluster">
<title>cluster_AppModule_declarations</title>
<polygon fill="none" stroke="black" points="16,-40.8 16,-92.8 769,-92.8 769,-40.8 16,-40.8"/>
</g>
<g id="clust10" class="cluster">
<title>cluster_AppModule_bootstrap</title>
<polygon fill="none" stroke="black" points="430,-170.8 430,-222.8 554,-222.8 554,-170.8 430,-170.8"/>
</g>
<!-- AppComponent -->
<g id="node1" class="node">
<title>AppComponent</title>
<polygon fill="#ffffb3" stroke="black" points="760.94,-84.8 655.06,-84.8 655.06,-48.8 760.94,-48.8 760.94,-84.8"/>
<text text-anchor="middle" x="708" y="-62.6" font-family="Times,serif" font-size="14.00">AppComponent</text>
</g>
<!-- AppModule -->
<g id="node6" class="node">
<title>AppModule</title>
<polygon fill="#8dd3c7" stroke="black" points="533.66,-149.8 530.66,-153.8 509.66,-153.8 506.66,-149.8 450.34,-149.8 450.34,-113.8 533.66,-113.8 533.66,-149.8"/>
<text text-anchor="middle" x="492" y="-127.6" font-family="Times,serif" font-size="14.00">AppModule</text>
</g>
<!-- AppComponent&#45;&gt;AppModule -->
<g id="edge1" class="edge">
<title>AppComponent&#45;&gt;AppModule</title>
<path fill="none" stroke="black" d="M708,-84.82C708,-102.17 708,-125.8 708,-125.8 708,-125.8 543.9,-125.8 543.9,-125.8"/>
<polygon fill="black" stroke="black" points="543.9,-122.3 533.9,-125.8 543.9,-129.3 543.9,-122.3"/>
</g>
<!-- EditProfileComponent -->
<g id="node2" class="node">
<title>EditProfileComponent</title>
<polygon fill="#ffffb3" stroke="black" points="637.27,-84.8 494.73,-84.8 494.73,-48.8 637.27,-48.8 637.27,-84.8"/>
<text text-anchor="middle" x="566" y="-62.6" font-family="Times,serif" font-size="14.00">EditProfileComponent</text>
</g>
<!-- EditProfileComponent&#45;&gt;AppModule -->
<g id="edge2" class="edge">
<title>EditProfileComponent&#45;&gt;AppModule</title>
<path fill="none" stroke="black" d="M514.22,-84.91C514.22,-84.91 514.22,-103.79 514.22,-103.79"/>
<polygon fill="black" stroke="black" points="510.72,-103.79 514.22,-113.79 517.72,-103.79 510.72,-103.79"/>
</g>
<!-- LoginComponent -->
<g id="node3" class="node">
<title>LoginComponent</title>
<polygon fill="#ffffb3" stroke="black" points="476.27,-84.8 361.73,-84.8 361.73,-48.8 476.27,-48.8 476.27,-84.8"/>
<text text-anchor="middle" x="419" y="-62.6" font-family="Times,serif" font-size="14.00">LoginComponent</text>
</g>
<!-- LoginComponent&#45;&gt;AppModule -->
<g id="edge3" class="edge">
<title>LoginComponent&#45;&gt;AppModule</title>
<path fill="none" stroke="black" d="M463.28,-84.91C463.28,-84.91 463.28,-103.79 463.28,-103.79"/>
<polygon fill="black" stroke="black" points="459.78,-103.79 463.28,-113.79 466.78,-103.79 459.78,-103.79"/>
</g>
<!-- QuizAnswerComponent -->
<g id="node4" class="node">
<title>QuizAnswerComponent</title>
<polygon fill="#ffffb3" stroke="black" points="344.09,-84.8 191.91,-84.8 191.91,-48.8 344.09,-48.8 344.09,-84.8"/>
<text text-anchor="middle" x="268" y="-62.6" font-family="Times,serif" font-size="14.00">QuizAnswerComponent</text>
</g>
<!-- QuizAnswerComponent&#45;&gt;AppModule -->
<g id="edge4" class="edge">
<title>QuizAnswerComponent&#45;&gt;AppModule</title>
<path fill="none" stroke="black" d="M268,-84.82C268,-102.17 268,-125.8 268,-125.8 268,-125.8 440.13,-125.8 440.13,-125.8"/>
<polygon fill="black" stroke="black" points="440.13,-129.3 450.13,-125.8 440.13,-122.3 440.13,-129.3"/>
</g>
<!-- RegistrationComponent -->
<g id="node5" class="node">
<title>RegistrationComponent</title>
<polygon fill="#ffffb3" stroke="black" points="173.77,-84.8 24.23,-84.8 24.23,-48.8 173.77,-48.8 173.77,-84.8"/>
<text text-anchor="middle" x="99" y="-62.6" font-family="Times,serif" font-size="14.00">RegistrationComponent</text>
</g>
<!-- RegistrationComponent&#45;&gt;AppModule -->
<g id="edge5" class="edge">
<title>RegistrationComponent&#45;&gt;AppModule</title>
<path fill="none" stroke="black" d="M99,-85.08C99,-106.12 99,-137.8 99,-137.8 99,-137.8 440.31,-137.8 440.31,-137.8"/>
<polygon fill="black" stroke="black" points="440.31,-141.3 450.31,-137.8 440.31,-134.3 440.31,-141.3"/>
</g>
<!-- AppComponent  -->
<g id="node8" class="node">
<title>AppComponent </title>
<polygon fill="#80b1d3" stroke="black" points="546.44,-214.8 437.56,-214.8 437.56,-178.8 546.44,-178.8 546.44,-214.8"/>
<text text-anchor="middle" x="492" y="-192.6" font-family="Times,serif" font-size="14.00">AppComponent </text>
</g>
<!-- AppModule&#45;&gt;AppComponent  -->
<g id="edge7" class="edge">
<title>AppModule&#45;&gt;AppComponent </title>
<path fill="none" stroke="black" stroke-dasharray="1,5" d="M492,-149.91C492,-149.91 492,-168.79 492,-168.79"/>
<polygon fill="black" stroke="black" points="488.5,-168.79 492,-178.79 495.5,-168.79 488.5,-168.79"/>
</g>
<!-- AppRoutingModule -->
<g id="node7" class="node">
<title>AppRoutingModule</title>
<polygon fill="#8dd3c7" stroke="black" points="913.28,-84.8 910.28,-88.8 889.28,-88.8 886.28,-84.8 784.72,-84.8 784.72,-48.8 913.28,-48.8 913.28,-84.8"/>
<text text-anchor="middle" x="849" y="-62.6" font-family="Times,serif" font-size="14.00">AppRoutingModule</text>
</g>
<!-- AppRoutingModule&#45;&gt;AppModule -->
<g id="edge6" class="edge">
<title>AppRoutingModule&#45;&gt;AppModule</title>
<path fill="none" stroke="black" d="M849,-85.08C849,-106.12 849,-137.8 849,-137.8 849,-137.8 544,-137.8 544,-137.8"/>
<polygon fill="black" stroke="black" points="544,-134.3 534,-137.8 544,-141.3 544,-134.3"/>
</g>
</g>
</svg>
