<?xml version="1.0" encoding="UTF-8" standalone="no"?>
<!DOCTYPE svg PUBLIC "-//W3C//DTD SVG 1.1//EN"
 "http://www.w3.org/Graphics/SVG/1.1/DTD/svg11.dtd">
<!-- Generated by graphviz version 5.0.0 (20220707.1540)
 -->
<!-- Title: dependencies Pages: 1 -->
<svg width="775pt" height="247pt"
 viewBox="0.00 0.00 775.00 246.80" xmlns="http://www.w3.org/2000/svg" xmlns:xlink="http://www.w3.org/1999/xlink">
<g id="graph0" class="graph" transform="scale(1 1) rotate(0) translate(4 242.8)">
<title>dependencies</title>
<polygon fill="white" stroke="transparent" points="-4,4 -4,-242.8 771,-242.8 771,4 -4,4"/>
<text text-anchor="middle" x="383.5" y="-8.2" font-family="sans-serif" font-size="14.00">dependencies</text>
<g id="clust1" class="cluster">
<title>cluster_AppModule</title>
<polygon fill="none" stroke="black" stroke-dasharray="1,5" points="8,-32.8 8,-230.8 759,-230.8 759,-32.8 8,-32.8"/>
</g>
<g id="clust2" class="cluster">
<title>cluster_AppModule_declarations</title>
<polygon fill="none" stroke="black" points="168,-40.8 168,-92.8 751,-92.8 751,-40.8 168,-40.8"/>
</g>
<g id="clust7" class="cluster">
<title>cluster_AppModule_imports</title>
<polygon fill="none" stroke="black" points="16,-40.8 16,-92.8 160,-92.8 160,-40.8 16,-40.8"/>
</g>
<g id="clust9" class="cluster">
<title>cluster_AppModule_bootstrap</title>
<polygon fill="none" stroke="black" points="339,-170.8 339,-222.8 463,-222.8 463,-170.8 339,-170.8"/>
</g>
<!-- AppComponent -->
<g id="node1" class="node">
<title>AppComponent</title>
<polygon fill="#ffffb3" stroke="black" points="742.94,-84.8 637.06,-84.8 637.06,-48.8 742.94,-48.8 742.94,-84.8"/>
<text text-anchor="middle" x="690" y="-62.6" font-family="Times,serif" font-size="14.00">AppComponent</text>
</g>
<!-- AppModule -->
<g id="node5" class="node">
<title>AppModule</title>
<polygon fill="#8dd3c7" stroke="black" points="442.66,-149.8 439.66,-153.8 418.66,-153.8 415.66,-149.8 359.34,-149.8 359.34,-113.8 442.66,-113.8 442.66,-149.8"/>
<text text-anchor="middle" x="401" y="-127.6" font-family="Times,serif" font-size="14.00">AppModule</text>
</g>
<!-- AppComponent&#45;&gt;AppModule -->
<g id="edge1" class="edge">
<title>AppComponent&#45;&gt;AppModule</title>
<path fill="none" stroke="black" d="M690,-85.08C690,-106.12 690,-137.8 690,-137.8 690,-137.8 452.71,-137.8 452.71,-137.8"/>
<polygon fill="black" stroke="black" points="452.71,-134.3 442.71,-137.8 452.71,-141.3 452.71,-134.3"/>
</g>
<!-- EditProfileComponent -->
<g id="node2" class="node">
<title>EditProfileComponent</title>
<polygon fill="#ffffb3" stroke="black" points="619.27,-84.8 476.73,-84.8 476.73,-48.8 619.27,-48.8 619.27,-84.8"/>
<text text-anchor="middle" x="548" y="-62.6" font-family="Times,serif" font-size="14.00">EditProfileComponent</text>
</g>
<!-- EditProfileComponent&#45;&gt;AppModule -->
<g id="edge2" class="edge">
<title>EditProfileComponent&#45;&gt;AppModule</title>
<path fill="none" stroke="black" d="M548,-84.82C548,-102.17 548,-125.8 548,-125.8 548,-125.8 452.73,-125.8 452.73,-125.8"/>
<polygon fill="black" stroke="black" points="452.73,-122.3 442.73,-125.8 452.73,-129.3 452.73,-122.3"/>
</g>
<!-- LoginComponent -->
<g id="node3" class="node">
<title>LoginComponent</title>
<polygon fill="#ffffb3" stroke="black" points="458.27,-84.8 343.73,-84.8 343.73,-48.8 458.27,-48.8 458.27,-84.8"/>
<text text-anchor="middle" x="401" y="-62.6" font-family="Times,serif" font-size="14.00">LoginComponent</text>
</g>
<!-- LoginComponent&#45;&gt;AppModule -->
<g id="edge3" class="edge">
<title>LoginComponent&#45;&gt;AppModule</title>
<path fill="none" stroke="black" d="M401,-84.91C401,-84.91 401,-103.79 401,-103.79"/>
<polygon fill="black" stroke="black" points="397.5,-103.79 401,-113.79 404.5,-103.79 397.5,-103.79"/>
</g>
<!-- RegistrationComponent -->
<g id="node4" class="node">
<title>RegistrationComponent</title>
<polygon fill="#ffffb3" stroke="black" points="325.77,-84.8 176.23,-84.8 176.23,-48.8 325.77,-48.8 325.77,-84.8"/>
<text text-anchor="middle" x="251" y="-62.6" font-family="Times,serif" font-size="14.00">RegistrationComponent</text>
</g>
<!-- RegistrationComponent&#45;&gt;AppModule -->
<g id="edge4" class="edge">
<title>RegistrationComponent&#45;&gt;AppModule</title>
<path fill="none" stroke="black" d="M251,-84.82C251,-102.17 251,-125.8 251,-125.8 251,-125.8 349.22,-125.8 349.22,-125.8"/>
<polygon fill="black" stroke="black" points="349.22,-129.3 359.22,-125.8 349.22,-122.3 349.22,-129.3"/>
</g>
<!-- AppComponent  -->
<g id="node7" class="node">
<title>AppComponent </title>
<polygon fill="#80b1d3" stroke="black" points="455.44,-214.8 346.56,-214.8 346.56,-178.8 455.44,-178.8 455.44,-214.8"/>
<text text-anchor="middle" x="401" y="-192.6" font-family="Times,serif" font-size="14.00">AppComponent </text>
</g>
<!-- AppModule&#45;&gt;AppComponent  -->
<g id="edge6" class="edge">
<title>AppModule&#45;&gt;AppComponent </title>
<path fill="none" stroke="black" stroke-dasharray="1,5" d="M401,-149.91C401,-149.91 401,-168.79 401,-168.79"/>
<polygon fill="black" stroke="black" points="397.5,-168.79 401,-178.79 404.5,-168.79 397.5,-168.79"/>
</g>
<!-- AppRoutingModule -->
<g id="node6" class="node">
<title>AppRoutingModule</title>
<polygon fill="#8dd3c7" stroke="black" points="152.28,-84.8 149.28,-88.8 128.28,-88.8 125.28,-84.8 23.72,-84.8 23.72,-48.8 152.28,-48.8 152.28,-84.8"/>
<text text-anchor="middle" x="88" y="-62.6" font-family="Times,serif" font-size="14.00">AppRoutingModule</text>
</g>
<!-- AppRoutingModule&#45;&gt;AppModule -->
<g id="edge5" class="edge">
<title>AppRoutingModule&#45;&gt;AppModule</title>
<path fill="none" stroke="black" d="M88,-85.08C88,-106.12 88,-137.8 88,-137.8 88,-137.8 349.11,-137.8 349.11,-137.8"/>
<polygon fill="black" stroke="black" points="349.11,-141.3 359.11,-137.8 349.11,-134.3 349.11,-141.3"/>
</g>
</g>
</svg>
